<svg width="107" height="125" viewBox="0 0 107 125" fill="none" xmlns="http://www.w3.org/2000/svg">
<path d="M68.199 115.628C68.9257 115.565 69.248 115.631 69.4559 115.506C86.3318 105.351 97.6586 91.0071 102.05 71.6048C103.166 66.6754 102.974 61.6089 101.722 56.6414C99.0224 45.9287 90.1447 38.5504 79.1508 37.9097C73.4585 37.5779 67.9609 38.1577 62.9533 41.3023C62.5601 43.9652 62.3397 46.6142 61.7509 49.1782C60.8218 53.2238 58.6912 56.5313 54.9714 58.6105C52.1728 60.1746 49.4869 60.2219 47.9616 58.6592C46.0369 56.6873 46.0687 54.1598 47.2213 52.0575C48.8336 49.1168 50.8951 46.3861 53.0266 43.7808C54.4094 42.0905 56.2598 40.784 57.8652 39.3375C56.3083 28.9566 46.4902 24.4926 34.6721 28.8414C34.2841 30.2956 33.9638 31.8776 33.4404 33.3889C31.5565 38.8289 28.2172 43.0125 22.6479 44.9429C20.5552 45.6682 18.2395 45.9311 16.4261 44.0498C15.0262 42.5976 15.0337 39.9759 16.5285 37.4175C18.903 33.3535 22.4732 30.4957 26.3823 28.0285C27.7438 27.1691 29.1637 26.4025 30.4949 25.6296C28.6872 9.50145 14.2271 -1.90401 0 4.53642C0.135708 3.36104 -0.0337763 2.34314 0.394326 1.78503C0.868891 1.16647 1.8528 0.771819 2.6779 0.617203C10.456 -0.840131 17.723 0.0582643 23.7379 5.75372C28.2206 9.99819 31.3139 15.1691 33.2989 21.0113C33.5819 21.8443 33.884 22.6711 34.1969 23.4932C34.2426 23.6133 34.3975 23.6915 34.7165 23.9895C35.5135 23.9119 36.5276 23.8651 37.5245 23.7082C49.834 21.7706 56.2861 25.0984 62.0257 36.6054C63.1751 36.2335 64.3841 35.8572 65.5833 35.4521C72.6653 33.0594 79.7766 32.9007 86.8958 35.238C98.6031 39.0817 106.152 49.1735 106.915 61.8654C107.33 68.7748 106.216 75.4415 103.709 81.856C97.6268 97.4229 87.6615 109.663 72.8209 117.67C72.0415 118.09 71.2687 118.523 70.5038 118.969C70.399 119.03 70.3584 119.202 69.9978 119.82C73.1056 120.553 76.0747 120.263 79.012 120.14C81.9021 120.019 84.7873 119.78 87.9167 119.576C87.6504 121.984 86.3864 122.933 84.8055 123.446C82.9874 124.035 81.1156 124.76 79.2453 124.829C74.2348 125.013 69.1978 125.111 64.1995 124.795C60.2208 124.545 59.1283 122.397 60.9167 119.169C64.7122 112.319 68.5587 105.497 72.4336 98.6915C73.0406 97.6254 73.9065 96.7072 74.8867 95.4111C76.6391 97.4226 75.8624 98.8974 75.2244 100.306C72.9699 105.284 70.6725 110.243 68.199 115.628ZM19.2589 41.2743C25.5915 40.4208 29.5737 36.3597 29.807 30.6479C25.5474 33.4769 21.4827 35.9919 19.2589 41.2743ZM50.3442 55.59C55.7811 54.3443 58.3184 50.6376 57.76 45.011C54.2669 47.9094 51.1936 50.72 50.3442 55.59Z" fill="#002E5D"/>
</svg>
