<svg width="42" height="42" viewBox="0 0 42 42" fill="none" xmlns="http://www.w3.org/2000/svg">
<g clip-path="url(#clip0_675_4886)">
<path d="M19.1333 17.9668H22.8667V24.0335H19.1333V17.9668Z" fill="#C3FFF2"/>
<path d="M24.5 24.4998C24.5 24.8093 24.3771 25.106 24.1583 25.3248C23.9395 25.5436 23.6428 25.6665 23.3333 25.6665H18.6667C18.3573 25.6665 18.0605 25.5436 17.8417 25.3248C17.6229 25.106 17.5 24.8093 17.5 24.4998V22.1665H2.33334V32.6665C2.33334 33.2853 2.57917 33.8788 3.01675 34.3164C3.45434 34.754 4.04783 34.9998 4.66667 34.9998H37.3333C37.9522 34.9998 38.5457 34.754 38.9833 34.3164C39.4208 33.8788 39.6667 33.2853 39.6667 32.6665V22.1665H24.5V24.4998Z" fill="#C3FFF2"/>
<path d="M39.3283 14.4432L34.5567 9.6715C34.3394 9.45597 34.0461 9.33446 33.74 9.33317H27.9067V7.05817C27.9225 6.44515 27.6963 5.85054 27.2771 5.40297C26.8579 4.95539 26.2794 4.69083 25.6667 4.6665H16.1467C15.8472 4.67829 15.5532 4.75003 15.282 4.87749C15.0108 5.00495 14.7679 5.18553 14.5677 5.40854C14.3676 5.63155 14.2142 5.89246 14.1167 6.17581C14.0192 6.45917 13.9795 6.75921 14 7.05817V9.33317H8.26C8.10646 9.33228 7.95425 9.36171 7.81211 9.41977C7.66996 9.47783 7.54068 9.56338 7.43167 9.6715L2.67167 14.4432C2.56354 14.5522 2.47799 14.6815 2.41993 14.8236C2.36187 14.9658 2.33244 15.118 2.33333 15.2715V19.8332H17.5V17.4998C17.5 17.1904 17.6229 16.8937 17.8417 16.6749C18.0605 16.4561 18.3572 16.3332 18.6667 16.3332H23.3333C23.6428 16.3332 23.9395 16.4561 24.1583 16.6749C24.3771 16.8937 24.5 17.1904 24.5 17.4998V19.8332H39.6667V15.2598C39.6654 14.9538 39.5439 14.6605 39.3283 14.4432ZM25.6667 9.33317H16.3333V6.99984H25.6667V9.33317Z" fill="#C3FFF2"/>
</g>
<defs>
<clipPath id="clip0_675_4886">
<rect width="42" height="42" fill="white"/>
</clipPath>
</defs>
</svg>
