<svg width="172" height="132" viewBox="0 0 172 132" fill="none" xmlns="http://www.w3.org/2000/svg">
<path d="M47.0888 108.266C47.0888 107.697 50.8339 125.913 57.2848 113.815C59.2456 110.168 52.7946 129.501 52.7946 129.501C52.7946 129.501 46.4417 119.462 47.0888 108.266Z" fill="#00C6CF"/>
<path d="M133.088 40.9129L123.167 50.0894C121.971 51.207 120.853 52.4031 119.637 53.5011L106.677 65.0502C104.716 66.7364 102.892 68.5404 101.01 70.2659C99.8374 71.4252 98.6071 72.5246 97.3237 73.56C96.657 74.0502 95.9707 74.5011 95.3629 74.9521C94.7551 75.4031 93.8727 75.7757 93.1472 76.1874C92.4217 76.5992 92.1668 76.1874 92.559 75.3639C93.1803 73.9899 93.9286 72.677 94.7943 71.4423C96.9511 68.9913 99.4806 66.8541 101.833 64.5207C104.186 62.1874 106.657 59.9717 109.186 57.7757C112.186 55.1286 114.951 51.9913 117.814 49.0698L127.284 39.4227C129.245 37.4619 131.206 35.5011 133.049 33.5404C135.912 30.4815 138.932 27.4619 141.52 24.2658C143.509 21.7623 145.349 19.1434 147.03 16.4227C147.402 15.8345 147.735 15.2266 148.128 14.658C148.794 13.6384 149.304 13.0109 149.971 12.6972C150.687 12.7104 151.401 12.776 152.108 12.8933C152.52 12.8933 152.951 12.8933 153.304 12.8933C153.657 12.8933 154.304 13.2855 154.579 14.109C154.714 14.6134 154.754 15.1389 154.696 15.658C154.651 16.1621 154.497 16.6503 154.245 17.0894C151.209 22.3891 147.432 27.2287 143.03 31.4619C139.853 34.7168 136.539 37.8541 133.226 41.0306L133.088 40.9129Z" fill="#00C6CF"/>
<path d="M100.167 97.2269C102.657 97.7563 105.089 98.4426 107.5 99.1877C108.383 99.4426 109.285 99.6387 110.167 99.9524C113.203 101.096 116.147 102.473 118.971 104.07C120.226 104.796 121.52 105.423 122.775 106.031C123.611 106.459 124.405 106.965 125.147 107.541C125.83 108.226 126.411 109.005 126.873 109.854C127.167 110.384 126.696 110.717 125.853 110.933C124.865 111.208 123.83 111.275 122.814 111.129C122.409 111.041 122.028 110.867 121.696 110.619L120.677 109.952L118.5 108.678L114.03 106.129C112.101 105.182 110.067 104.464 107.971 103.992C105.696 103.305 103.383 102.737 101.049 102.227C99.5984 101.952 98.1474 101.678 96.6768 101.482L93.3435 101.109C92.2258 101.109 91.1082 100.972 89.9905 100.972C88.2683 101.091 86.5576 101.34 84.8729 101.717C84.5004 101.717 84.1278 101.913 83.7553 101.972C82.3631 101.972 81.7945 101.658 81.5004 100.286C81.5004 99.9916 81.3043 99.7171 81.2455 99.4622C81.077 98.445 81.6522 97.4508 82.618 97.0897C84.1698 96.4473 85.8223 96.0823 87.5004 96.0112C89.1973 95.8838 90.9014 95.8838 92.5984 96.0112C95.1451 96.1972 97.6787 96.5311 100.187 97.0112L100.167 97.2269Z" fill="#00C6CF"/>
<path d="M114.069 63.0501L88.2649 83.2853C85.1277 85.7559 82.1473 88.3638 78.9904 90.8148C76.1309 92.8134 73.5006 95.1215 71.1473 97.6971C70.5371 98.3379 69.8819 98.9342 69.1865 99.4814C68.9708 99.6775 68.9316 99.6971 68.8728 99.7167C68.8049 99.7733 68.7454 99.8393 68.6963 99.9128C68.5002 100.168 68.2649 100.442 68.0689 100.736C67.2257 101.913 66.5787 103.364 65.7551 104.658C64.1389 107.615 62.7303 110.682 61.5394 113.834L61.0689 115.03L60.5198 116.56L59.0885 120.305C58.2257 122.717 57.4414 125.128 56.5983 126.952C56.0204 128.212 55.2822 129.391 54.4022 130.462C54.075 130.928 53.6081 131.278 53.0689 131.462H52.7551C52.7551 131.717 52.7551 131.462 52.7551 131.599H52.5983C52.4108 131.539 52.2274 131.467 52.0493 131.383C51.6933 131.207 51.3634 130.983 51.0689 130.717C50.7551 130.462 50.5002 130.207 50.2257 129.972C49.9685 129.677 49.7263 129.369 49.5002 129.05C49.0398 128.428 48.6268 127.773 48.2649 127.089C47.8229 126.351 47.4299 125.585 47.0885 124.795C46.8009 123.919 46.4872 123.037 46.1473 122.148C45.7551 120.952 45.5198 119.521 45.1277 118.227L44.6179 116.07C44.4218 115.403 44.2845 114.442 44.1865 114.109L43.6179 111.128C43.3761 110.151 43.2251 109.153 43.1669 108.148L42.7355 102.423C42.6445 101.524 42.6118 100.62 42.6375 99.7167C42.6312 98.9481 42.5656 98.1811 42.4414 97.4226C42.4414 97.0108 42.4414 96.8148 42.4414 96.5599C42.4467 96.2725 42.5505 95.9956 42.7355 95.7755C43.494 95.0293 44.671 94.9149 45.5591 95.501C47.3466 96.464 48.905 97.8017 50.1277 99.4226C51.5493 101.265 52.5227 103.413 52.9708 105.697C53.1473 106.717 53.3826 107.658 53.461 108.756V113.285C53.461 113.638 53.461 113.54 53.461 113.54C53.3793 113.735 53.3793 113.954 53.461 114.148C53.5787 114.403 53.6571 114.403 53.912 114.148L54.1277 113.854C54.1277 113.854 54.1277 113.854 54.2257 113.619L54.3434 113.246L54.814 111.756C55.4806 109.795 56.1865 107.834 57.01 105.874C57.5002 104.678 58.01 103.481 58.5591 102.285C58.8532 101.678 59.1277 101.07 59.4414 100.462C59.7551 99.854 60.1473 99.2853 60.5198 98.6971C61.3284 97.4508 62.2262 96.2647 63.2061 95.1481C63.5639 94.7974 63.9438 94.4699 64.3434 94.1677L65.0689 93.5991C65.5542 93.2001 66.0651 92.8333 66.5983 92.501C67.6571 91.8148 68.7747 91.1873 69.7747 90.5403L72.5787 87.7755L78.1669 82.7756L102.755 61.0501L110.343 54.3442C112.892 52.1481 115.441 49.952 117.971 47.7167C125.637 40.9716 133.324 34.1873 140.598 27.1285C143.402 24.3638 146.069 21.5206 148.677 18.6383C151.285 15.7559 153.794 12.7559 156.343 9.9128C157.441 8.59908 158.618 7.4226 159.834 6.22653C161.406 4.58974 163.186 3.16588 165.128 1.99123C165.735 1.64299 166.399 1.40407 167.088 1.28535C167.74 1.22086 168.397 1.22086 169.049 1.28535C169.579 1.28535 170.147 1.28535 170.52 1.28535C171.559 1.38339 171.481 4.79515 168.853 8.9128C167.912 10.4814 166.892 11.9324 165.873 13.4422L164.324 15.6971C163.794 16.4422 163.187 17.1089 162.618 17.8148C160.108 20.6252 157.598 23.3572 155.088 26.0108C152.539 28.6383 149.912 31.2265 147.245 33.854L139.245 41.4226C131.088 48.8344 122.781 56.0958 114.324 63.2069L114.069 63.0501Z" fill="#00C6CF"/>
<path d="M124.363 37.0896C117.827 41.0112 111.291 44.9328 104.755 48.8543C102.383 50.3053 100.148 51.9524 97.775 53.3837L72.6966 68.5406C68.9515 70.7563 65.324 73.1877 61.7554 75.5994C57.1755 78.7237 52.4011 81.553 47.4613 84.07C45.9123 84.8347 45.6966 84.1877 46.3633 82.619C47.434 80.2045 48.9356 78.0051 50.7946 76.1288L53.9123 73.2465L55.4809 71.7759L57.1672 70.4818C59.4156 68.7563 61.6901 67.07 63.9907 65.423C66.3044 63.7759 68.5986 62.1092 71.0299 60.619C73.4613 59.1288 75.9123 57.5602 78.4613 56.2465C84.4417 52.9132 90.1084 48.619 95.9515 44.8151C102.383 40.6386 108.893 36.5602 115.363 32.4622L127.363 24.9131C133.383 20.9916 139.52 17.3445 145.402 13.3445C149.971 10.2465 154.304 6.95236 158.814 3.83472C159.814 3.14844 160.775 2.42295 161.795 1.87393C165.716 -0.498618 167.677 -0.322147 169.246 0.775892C169.636 1.00298 170.01 1.25857 170.363 1.5406C170.873 2.03079 170.834 2.73668 170.363 3.65825C169.819 4.87642 169.032 5.97065 168.05 6.87393C166.304 8.65825 164.363 10.1092 162.461 11.7563C160.559 13.4033 158.54 14.9131 156.579 16.4818C152.552 19.6302 148.342 22.5372 143.971 25.1877C137.54 29.3053 130.951 33.2661 124.363 37.3445V37.0896Z" fill="#00C6CF"/>
<path d="M110.893 104.246C108.431 103.378 105.916 102.671 103.363 102.129C102.422 101.893 101.402 101.991 100.5 101.795C98.8338 101.423 97.1475 101.286 95.422 101.031C93.6979 100.82 91.963 100.708 90.226 100.697C88.6913 100.707 87.1636 100.905 85.6769 101.286C83.8243 101.939 81.8767 102.284 79.9122 102.305C79.2652 102.305 78.9318 100.639 79.0691 98.9719C79.2064 97.3052 79.873 95.5797 81.0299 95.266C85.3217 94.1924 89.7921 94.0387 94.1475 94.815C96.7554 95.266 99.4809 95.0503 102.128 95.4229C105.032 95.8456 107.898 96.5013 110.697 97.3836C112.422 97.9523 114.128 98.5013 115.795 99.1483C118.344 100.07 120.755 101.325 123.226 102.403C125.197 103.143 127.117 104.014 128.971 105.011C129.344 105.286 129.755 105.521 130.108 105.835C131.383 107.07 131.52 107.795 130.971 108.972C130.876 109.227 130.764 109.476 130.638 109.717C129.973 110.509 128.892 110.812 127.912 110.482C127.03 110.286 126.069 110.188 125.187 110.031C124.349 109.856 123.539 109.573 122.775 109.188L118.069 107.227C115.693 106.199 113.257 105.315 110.775 104.58L110.893 104.246Z" fill="#00C6CF"/>
<path d="M154.795 44.4036C153.775 46.6977 152.834 49.031 151.834 51.3644C150.834 53.6977 149.873 56.0114 148.932 58.384C148.246 60.0899 147.795 61.8938 147.128 63.6193C144.775 69.6977 142.54 75.8546 140.736 82.1095C139.991 85.0114 139.246 87.7173 138.658 90.5212C138.305 92.3055 137.991 94.1095 137.716 95.8938C137.31 97.6144 136.996 99.3554 136.775 101.109C136.775 101.972 136.305 102.306 135.324 101.384C134.068 99.883 133.272 98.0517 133.03 96.1095C132.938 92.1764 133.16 88.2422 133.697 84.3447C134.432 80.5347 135.475 76.7904 136.814 73.1487C138.403 68.7565 139.305 64.031 140.736 59.4232C142.324 54.4624 143.991 49.6193 145.991 44.6977C147.187 41.7369 148.462 38.8153 149.716 35.835C151.677 31.3644 153.795 26.9722 155.814 22.5801C156.638 20.8742 157.324 19.1291 158.069 17.384C158.747 15.6057 159.56 13.8817 160.501 12.2271C160.932 11.5016 161.265 10.7369 161.775 10.031C163.618 7.42319 164.834 6.97221 166.697 7.6977C167.134 7.83529 167.56 8.00571 167.971 8.2075C169.265 8.97221 169.442 10.6781 168.677 12.6193C167.52 15.5408 166.716 18.6781 165.167 21.5604L161.011 30.5801C159.05 35.1291 156.873 39.7369 155.011 44.4428L154.795 44.4036Z" fill="#00C6CF"/>
<path d="M91.1082 44.2462L60.52 56.7952C56.7945 58.3246 53.2063 60.1089 49.4808 61.6383L29.8729 69.7168L27.4808 70.7364L26.2651 71.2854L25.3043 71.7168L23.1671 72.5403C21.6965 73.1481 20.0494 73.8344 18.3239 74.6383C17.9318 74.8148 17.5592 74.9913 17.2063 75.1874C17.0187 75.2772 16.8466 75.3964 16.6965 75.5403C16.8141 75.5403 17.0298 75.5403 17.2063 75.5403L19.4612 75.6972C21.0298 75.7952 22.6376 75.8932 24.0886 76.0501C24.5592 76.0501 25.0298 76.1481 25.4808 76.2266C25.618 76.2266 25.6376 76.2266 25.8926 76.2266L26.6769 76.403L28.2259 76.756C30.3187 77.2521 32.3704 77.9076 34.3631 78.7168C36.4596 79.5526 38.4373 80.6601 40.2455 82.0109C42.1489 83.5007 43.6015 85.4895 44.4416 87.756C44.971 89.1677 44.7357 89.9128 44.3043 90.0501C43.8729 90.1874 43.0494 89.7952 41.8729 89.3834C40.3879 88.9273 38.8373 88.7219 37.2847 88.7756C35.536 88.6087 33.8085 88.2671 32.1278 87.756C30.4444 87.2319 28.7283 86.8192 26.9906 86.5207C26.0886 86.3638 25.1867 86.207 24.2651 86.0893L23.5592 85.9717L22.0298 85.756C20.971 85.756 19.8533 85.6383 18.7553 85.5795L15.52 85.1874L12.1671 84.854L8.69647 84.5795L6.95137 84.4619C6.42256 84.4431 5.89701 84.3708 5.38275 84.2462C4.01187 83.9746 2.71491 83.413 1.57882 82.5991C0.922717 82.2146 0.433385 81.5994 0.206275 80.8736C0.0748633 80.4083 0.0153525 79.9256 0.029804 79.4423C0.0614095 79.1687 0.0614095 78.8923 0.029804 78.6187C-0.00993465 78.3522 -0.00993465 78.0813 0.029804 77.8148C0.229908 76.3262 0.919753 74.9465 1.99059 73.8932C3.04206 72.7718 4.29183 71.8544 5.67686 71.1874L6.30431 70.854L7.36314 70.5795C8.0298 70.403 8.81412 70.2266 9.32392 70.0501L12.1867 68.8344L17.6965 66.5599L20.3631 65.5795L21.5984 65.0697L22.1671 64.854L22.52 64.7168C31.7357 61.0697 40.8337 56.2854 49.971 52.1285L80.5396 38.5403L99.2259 30.1089C108.598 25.7952 118.187 21.8344 127.383 17.2854C130.951 15.5403 134.422 13.6579 137.853 11.7364L148.226 6.2854C149.755 5.48147 151.206 4.63834 152.755 3.85402C154.304 3.06971 155.363 2.55991 156.363 2.10892C157.229 1.7762 158.121 1.51391 159.03 1.32461C160.165 1.06097 161.346 1.06097 162.481 1.32461C162.922 1.40599 163.367 1.46489 163.814 1.50108C164.481 1.59912 164.442 2.48147 163.696 3.71677C162.606 5.38432 161.286 6.88941 159.775 8.18736C153.893 12.5991 147.853 16.6776 141.54 20.5991C135.069 24.1874 128.402 27.5403 121.677 30.8344C116.677 33.2462 111.795 35.6972 106.579 37.9521L91.2259 44.5011L91.1082 44.2462Z" fill="#00C6CF"/>
</svg>
