<svg width="24" height="23" viewBox="0 0 24 23" fill="none" xmlns="http://www.w3.org/2000/svg">
<path d="M23.0093 2.69665L10.9588 14.5139L6.34892 9.6363C6.18717 9.47768 5.94455 9.47768 5.78279 9.59665C5.62104 9.71561 5.62104 9.9932 5.74236 10.1518L10.6758 15.3466C10.7566 15.426 10.8375 15.4656 10.9588 15.4656C11.0801 15.4656 11.161 15.426 11.2419 15.3466L23.5754 3.25182C23.7371 3.0932 23.6967 2.81561 23.535 2.69665C23.3732 2.57768 23.171 2.57768 23.0093 2.69665Z" fill="white"/>
<path d="M4.44815 23H19.0057C21.4724 23 23.4539 21.0569 23.4539 18.6379V10.7466C23.4539 10.5086 23.2921 10.35 23.0495 10.35C22.8069 10.35 22.6451 10.5086 22.6451 10.7466V18.6379C22.6451 20.6207 21.0276 22.2069 19.0057 22.2069H4.44815C2.42626 22.2069 0.808755 20.6207 0.808755 18.6379V4.36207C0.808755 2.37931 2.42626 0.793103 4.44815 0.793103H17.5095C17.7522 0.793103 17.9139 0.634483 17.9139 0.396552C17.9139 0.158621 17.7522 0 17.5095 0H4.44815C1.98145 0 0 1.9431 0 4.36207V18.6379C0 21.0569 1.98145 23 4.44815 23Z" fill="white"/>
</svg>
