<svg width="42" height="42" viewBox="0 0 42 42" fill="none" xmlns="http://www.w3.org/2000/svg">
<g clip-path="url(#clip0_675_4914)">
<path d="M27.0375 21.525L24.675 23.8875L27.0375 26.25L23.8875 29.4L35.175 40.6875C36.75 42.2625 39.1125 42.2625 40.6875 40.6875C42.2625 39.1125 42.2625 36.75 40.6875 35.175L27.0375 21.525ZM37.275 39.375C36.225 39.375 35.175 38.5875 35.175 37.275C35.175 36.225 35.9625 35.175 37.275 35.175C38.5875 35.175 39.375 35.9625 39.375 37.275C39.375 38.5875 38.5875 39.375 37.275 39.375ZM9.45 21L11.8125 19.425L15.75 14.9625L18.1125 17.325L20.475 14.9625L20.2125 14.7C20.7375 13.3875 21 12.075 21 10.5C21 4.725 16.275 0 10.5 0C8.925 0 7.6125 0.2625 6.3 0.7875L13.9125 8.4L8.4 13.9125L0.7875 6.3C0.2625 7.6125 0 8.925 0 10.5C0 16.0125 4.2 20.2125 9.45 21Z" fill="#00C6CF"/>
<path d="M21 28.3502L23.3625 26.2502L21 23.8877L35.9625 8.9252L39.1125 7.8752L42 2.1002L40.1625 0.262695L34.125 2.8877L32.8125 6.0377L18.1125 21.0002L15.75 18.6377L13.65 21.0002C13.65 21.0002 15.75 22.5752 13.3875 24.9377C12.075 26.2502 9.97501 24.6752 6.03751 28.6127L0.525006 34.1252C0.525006 34.1252 -1.04999 36.7502 2.10001 39.9002C5.25001 43.0502 7.87501 41.4752 7.87501 41.4752L13.3875 35.9627C17.0625 32.2877 15.75 29.9252 16.8 28.8752C19.1625 26.5127 21 28.3502 21 28.3502ZM12.8625 27.3002L14.7 29.1377L4.72501 39.1127L2.88751 37.2752L12.8625 27.3002Z" fill="#00C6CF"/>
</g>
<defs>
<clipPath id="clip0_675_4914">
<rect width="42" height="42" fill="white"/>
</clipPath>
</defs>
</svg>
