<svg width="981" height="793" viewBox="0 0 981 793" fill="none" xmlns="http://www.w3.org/2000/svg">
<path d="M927.877 615.413L927.747 616.773L930.098 618.043L930.047 618.623L931.607 619.883L934.148 625.743L935.857 627.003L937.417 627.113L938.377 628.423L941.167 629.453L942.398 631.683L947.617 633.783L949.518 635.673L950.627 636.153L954.187 634.843L955.427 636.033L956.927 639.943L961.317 644.123L964.247 645.313L966.687 647.933L970.687 650.443L974.367 651.473L974.827 652.183L977.477 652.003L978.497 652.793L978.598 654.393L979.778 654.583L979.477 656.043L979.947 657.083L978.838 657.753L978.278 659.533L978.507 660.803L978.637 662.043L980.077 664.713L979.648 665.283L980.197 666.753L979.327 668.643L977.538 670.273L977.797 672.083L977.617 673.083L976.167 673.253L975.617 675.573L973.658 677.343L974.067 679.003L975.247 680.343L974.627 681.883L975.107 683.333L973.177 684.883L969.898 689.563L968.437 689.833L964.627 688.253L961.408 688.083L953.387 685.853L949.427 683.163L947.947 683.253L942.598 679.153L936.827 676.613L935.227 676.933L930.038 673.823L927.557 674.173L923.137 671.503L920.338 667.713L918.367 667.223L917.028 665.483L915.747 664.873L915.977 664.363L916.708 663.813L916.098 662.743L914.518 663.343L915.107 661.893L916.857 661.013L917.247 659.283L916.768 657.423L917.898 655.343L917.718 645.613L916.997 642.553L917.547 641.673L917.117 639.423L918.557 633.013L924.218 622.013L924.887 619.763L924.148 618.733L924.098 617.393L927.077 614.523L927.877 615.413ZM645.588 534.393L644.817 531.733L645.557 531.363L645.047 530.393L645.167 529.933L645.627 529.643L645.617 527.343L646.387 526.513L646.047 525.643L646.458 524.813H647.208L648.887 524.623L649.627 523.493L650.737 524.853L651.107 526.423L651.297 531.213L651.797 531.583L651.627 535.653L652.538 536.293L651.857 537.403L653.187 538.763L651.477 539.733L648.997 539.723L648.588 537.823L647.528 537.063L647.617 536.073L646.088 536.503L645.528 535.393L646.117 535.643L646.208 534.753L645.588 534.393ZM628.227 519.953L630.887 519.123L631.307 519.803L629.218 521.443L630.577 523.883L630.968 523.653L629.788 521.573L631.257 520.463L631.757 521.593L630.867 522.723L632.538 521.873L633.107 522.783L631.727 524.583L631.047 523.783L630.598 524.013L630.817 525.613L632.148 528.763L633.067 529.593V530.903L634.257 532.033L633.898 532.953L636.838 533.263L637.557 534.213L637.627 537.953L636.028 540.193L636.727 542.793L637.718 543.153L637.007 543.593L637.447 544.033L635.237 545.623L630.797 546.943L628.857 549.533L625.247 552.313L621.367 551.003L620.417 547.513L618.197 548.003L616.437 547.003L614.227 542.703L613.778 539.183L617.367 533.693L619.788 531.343L621.977 526.303L623.577 524.153L625.857 522.173L626.607 520.713H627.018L627.148 519.463L627.307 518.993L627.507 517.463L629.817 517.423L630.297 518.243L628.227 519.953ZM541.268 464.343L542.458 464.573L543.848 463.903L546.617 465.853L546.937 467.583L544.817 470.093L544.437 471.523L543.458 472.123L542.977 476.713L543.518 477.903L547.458 479.673L548.377 483.023L548.648 488.473L550.607 489.853L549.038 490.703L548.958 492.503L549.367 493.223L550.398 492.993L551.427 492.923L550.627 496.073L552.627 500.463L552.137 502.003L550.997 502.913L551.167 503.603L552.117 503.883L551.687 504.643L551.848 506.963L552.348 507.423L551.968 509.473L551.028 508.593L549.857 508.673L548.867 509.603L547.968 509.953L546.877 510.043L545.288 511.443L544.327 511.233L544.237 508.343L542.817 509.033L542.057 506.863L540.737 509.443L533.927 505.723L530.208 509.143L526.158 507.553L523.538 507.883L523.447 504.023L522.667 504.333L522.028 503.063L522.987 503.213L523.727 501.553L524.588 493.193L526.567 491.923L526.447 488.853L531.338 487.263L532.487 488.213L535.208 486.993L536.297 485.443L537.848 479.633L535.768 474.823L534.177 473.983L533.577 472.403L533.838 469.723L529.807 463.203L530.317 458.383L538.437 460.403L541.268 464.343ZM586.208 411.973L588.718 412.963L591.637 413.383L596.627 417.953L599.958 418.393L603.497 419.963L606.477 419.573L612.257 420.423L618.007 423.273L627.197 432.163L629.687 433.313L629.408 433.883L628.367 433.733L628.518 435.073L627.427 436.173L625.908 439.823L621.367 444.143L618.788 449.783L616.348 457.773L615.658 459.013L615.697 460.573L614.917 462.233L618.437 470.793L618.817 472.083L622.547 480.443L623.218 489.363L624.577 491.273L625.788 495.153L625.297 498.513L626.518 502.183L623.637 508.913L624.677 510.123L624.317 510.653L624.197 512.933L625.057 513.683L625.757 511.983L626.387 511.773L626.687 510.513L629.567 512.453L628.827 513.023L629.367 513.283L627.968 514.433L625.838 513.723L625.737 514.323L626.677 515.033L625.247 515.303L625.577 516.053L625.667 517.813L626.208 517.843L626.468 519.033L625.538 521.923L621.187 525.793L621.357 526.553L621.257 526.803L620.637 528.283L619.898 529.633L619.067 528.693L618.528 529.073L618.687 530.073L619.158 529.613L619.887 529.973L619.117 531.193L618.898 531.673L616.857 533.483L616.908 531.993L613.807 532.853L613.437 532.493L611.687 536.463L612.247 537.493L613.047 537.683L611.268 541.143L605.357 540.253L604.997 539.003L604.887 538.493L600.357 538.083L598.737 538.533L598.817 537.923L600.057 537.713L604.838 538.293L604.528 537.553L598.987 537.313L598.377 538.573L598.018 537.773L596.398 538.153L595.617 539.053L595.768 539.413L596.437 538.803L596.788 539.043L597.387 538.663L597.557 539.453L598.348 539.133L598.677 539.743L593.637 542.743L592.718 541.933L592.528 541.703L590.028 539.363L582.937 537.103L581.588 535.873L577.007 537.893L575.898 536.143L573.158 536.973L572.367 540.183L565.477 538.163L566.468 532.933L565.127 533.003L565.268 529.243L564.197 523.923L569.047 519.713L572.727 519.963L578.088 514.773L573.057 510.263L574.197 507.183L574.827 506.983L572.268 504.413L566.497 505.323L564.098 502.983L561.167 501.663L558.427 498.493L555.747 496.983L553.557 495.583L554.227 492.473L552.838 490.183L552.117 485.333L551.348 485.493L550.427 483.803L550.778 483.333L550.377 481.943L549.197 481.483L549.838 478.053L552.288 477.543L552.637 473.233L551.088 471.233L549.827 467.693L550.057 464.123L548.857 460.393L546.538 456.193L545.887 452.973L544.937 453.103L543.987 452.773L543.007 451.843L541.877 451.653L540.177 451.213L536.398 453.313L535.658 454.583L534.148 455.403L528.257 457.413L525.557 456.613L524.877 456.723L524.827 457.443L523.117 456.363L521.747 451.203L523.408 448.813L528.577 446.013L544.607 435.373L552.018 428.393L568.218 416.313L570.547 415.063L583.117 411.083L584.588 411.443L586.247 411.033L586.208 411.973Z" fill="#002E5D" stroke="white" stroke-width="0.5"/>
<path d="M312.027 499.693L311.217 505.163L310.817 505.913L309.167 506.613L305.507 504.993L300.817 505.303L299.137 504.093L299.107 503.173L301.057 501.663L304.577 502.283L308.187 501.283L307.747 499.663L308.997 497.703L308.697 496.583L309.717 493.763L311.117 496.303L312.027 499.693ZM278.917 484.963L279.817 485.013L280.697 486.093L279.467 487.533L278.048 487.973L276.947 487.833L275.437 486.803L274.557 484.743L276.867 483.693L278.917 484.963ZM26.5675 469.983L27.5975 471.123L27.3675 471.663L26.1475 470.953L24.7775 471.053L24.9675 469.443L26.5675 469.983ZM329.458 455.753L327.277 456.963L325.997 456.643L323.898 455.093L322.337 452.953L323.497 452.663L330.648 454.843L329.458 455.243V455.753ZM8.3075 442.493L8.7275 442.753L8.3375 443.483L8.7575 446.183L10.3075 448.383L10.0075 449.373L11.3475 452.033L11.5575 453.823L13.5675 455.383L13.4175 456.823L13.3775 457.673L13.0775 460.733L14.0675 461.593L13.8075 463.793L14.1675 464.813L14.0275 466.493L13.4275 467.243L15.2575 471.953L14.6475 474.083L15.4275 475.473L17.0575 476.543L13.9675 481.313L14.1875 486.033L16.1175 487.993L13.5175 488.473L11.1875 473.573L9.1775 453.863L8.0275 448.243L5.9275 443.243L8.3075 442.493ZM347.178 456.383L350.377 460.523L352.247 461.533L356.827 463.603L356.887 464.083L355.687 465.043L353.798 464.173L352.077 464.453L350.988 465.793L352.097 469.673L353.827 470.233L353.178 471.313L354.137 473.063L355.148 473.533L355.757 474.003L360.377 471.693L360.627 474.803L357.817 477.503L355.357 483.013L354.887 487.893L355.708 489.873L355.567 492.973L354.518 496.213L353.238 497.963L352.548 500.953L346.907 499.623L342.947 499.853L340.988 497.663L339.697 493.563L339.327 486.503L339.937 479.573L342.537 476.593L346.428 476.263L347.367 475.363L348.727 472.223L349.708 466.033L348.877 463.063L346.697 460.213L343.678 458.293L340.777 458.693L339.827 457.133L338.727 451.663L338.898 448.163L344.377 442.363L345.697 452.773L347.178 456.383ZM80.5875 298.243L79.8575 299.353L79.1775 298.863L78.3475 299.233L78.5875 300.473L79.9175 301.133L77.4375 305.413L77.0375 308.263L77.8575 309.853V312.523L75.5675 315.093L75.1175 314.823L76.9575 312.523L75.7575 310.163L75.7975 308.253L74.5075 305.253L78.2775 298.463L80.5875 298.243ZM70.5275 271.453L71.6275 273.603L70.2575 274.923L69.6075 278.543L68.6875 279.963L70.6975 283.173L72.2475 283.823L73.0075 282.693L72.6375 281.073L70.7875 280.313L71.2875 280.063L71.6875 277.943L73.1775 278.333L74.4975 277.713L77.1075 278.943L78.5775 278.233L78.0975 280.223L76.8775 281.993L77.8875 283.603L77.1575 286.453L78.2675 288.533L74.3775 284.723L72.2875 284.493L72.4475 287.623L71.7775 292.453L71.1375 293.463L65.9175 293.633L63.2275 295.403L63.3375 297.073L65.9575 298.103L66.9275 298.903L66.4175 299.233L62.9775 298.503L62.0975 296.903L61.0875 296.373L60.5675 293.693L59.3175 292.403L57.9475 286.813L56.6775 285.143L54.7475 284.083L53.3475 281.823L51.1075 280.223L48.8275 277.543L45.7475 276.013L45.9075 274.643L47.1575 274.883L47.5675 275.863L48.7375 275.973L51.2875 273.513L54.8175 272.343L56.9275 272.883L55.8175 272.893L55.7475 274.303L56.7275 275.623L58.7875 276.973L59.9675 276.863L62.8675 274.973L64.4375 272.763L66.1275 272.863L66.8975 271.533L69.2675 272.303L69.9975 270.803L70.4875 270.773L70.5275 271.453ZM494.937 259.043L496.757 259.503L490.367 264.063L486.148 270.003L484.587 271.223L481.527 271.773L479.587 271.273L477.377 266.723L476.087 264.663L475.337 264.383L478.708 261.943L483.137 262.773L494.937 259.043ZM137.467 242.653L143.827 246.973L143.077 248.823L143.577 251.103L146.407 258.403L151.987 265.053L152.467 266.513L148.577 268.863L146.847 270.993L144.917 274.143L144.537 276.863L141.687 276.623L142.077 281.833L142.797 282.773L140.817 282.413L139.797 282.953L135.797 286.863L134.547 290.903L134.137 295.423L134.437 297.343L135.337 299.653L135.857 301.153L135.467 301.973L136.077 302.973L135.157 303.333L136.227 304.603L138.787 304.583L140.967 301.483L141.667 299.003L140.637 296.343L141.407 292.993L144.157 291.743L145.387 293.473L146.977 293.793L149.207 291.263L149.227 289.013L145.747 289.713L143.507 288.643L147.287 285.253L149.207 279.883L149.867 280.733L149.827 282.343L149.157 283.023L149.037 284.853L150.217 287.153L151.867 288.313L153.937 288.473L157.377 286.223L159.277 286.913L164.767 286.633L163.937 286.993L164.547 287.973L165.867 287.363L167.597 288.203L169.087 291.413L168.407 291.363L167.987 292.623L168.357 293.123L164.427 295.813L163.757 295.463L163.477 298.043L162.177 300.253L163.537 300.863L164.267 304.843L166.207 307.703L169.137 310.353L170.917 310.403L169.837 311.863L169.757 313.653L170.767 313.343L170.707 312.493L174.807 308.593L177.217 309.263L178.527 310.283L179.397 309.973L178.837 305.883L179.167 303.313L180.067 302.103L179.147 301.763L177.717 302.213L175.057 304.343L170.977 305.793L169.257 305.493L167.917 302.733L169.367 294.813L169.447 293.243L168.607 292.323L170.047 291.683L171.237 289.653L171.697 287.483L171.367 285.133L172.527 283.703L173.167 280.633L172.427 275.623L177.197 275.823L178.757 278.023L182.997 277.333L182.837 280.323L187.797 283.853L191.227 284.483L194.227 275.013L196.347 274.853L196.767 273.063L200.897 273.503L201.417 273.823L200.547 275.763L201.137 276.303L201.967 275.913L202.147 277.023L202.697 276.903L203.147 277.843L201.347 279.543L201.737 280.993L206.837 281.603L206.277 284.963L210.857 286.523L214.827 285.753L221.007 286.633L221.767 290.173L217.397 291.663L217.267 298.803L221.937 296.253L226.877 297.503L232.097 304.953L238.337 303.393L243.457 306.193L249.847 304.783L250.327 301.343L251.157 300.223L253.287 300.383L259.518 298.513L260.977 294.593L263.648 296.023L272.398 293.343L278.687 288.973L282.627 287.813L283.827 284.563L283.648 282.133L288.518 280.683L288.287 277.563L293.817 274.043L293.467 272.553L294.958 273.183L301.407 269.093L303.507 269.043L305.917 270.303L308.327 269.423L309.417 268.373L313.417 268.273L315.417 270.443L316.817 278.263L315.287 278.423L314.988 279.173L316.428 282.303L316.277 283.963L314.107 287.943L307.837 291.433L305.667 295.913L303.197 296.703L300.687 299.253L300.268 301.573L299.178 304.103L298.337 305.113L297.167 305.023L296.327 308.033L298.087 317.913L296.077 324.683L295.257 325.273L291.907 325.693L284.377 329.083L283.067 328.603L282.717 327.133L278.717 326.683L276.898 327.183L277.077 327.683L274.077 328.043L272.407 329.223L271.447 329.633L265.857 329.283L262.747 332.243L263.727 331.933L264.988 330.453L266.007 329.443L271.507 329.933L275.667 328.153L278.988 327.583L282.048 328.443L284.847 329.643L292.377 325.973L294.077 325.933L296.967 325.003L301.157 326.753L307.317 326.333L307.027 325.873L303.417 325.433L301.197 325.703L299.717 325.093L298.837 323.693L298.727 322.323L298.947 318.363L298.857 317.533L298.988 314.503L298.488 313.573L299.298 308.313L300.097 306.653L301.587 305.873L301.637 303.883L304.407 299.553L306.377 298.513L308.497 295.813L308.467 291.833L309.607 292.003L310.687 293.413L311.857 293.423L314.107 294.753L314.577 299.303L315.557 301.613L318.917 306.573L322.787 310.403L325.768 312.423L336.857 315.463L344.117 315.093L359.507 311.273L365.557 311.003L369.247 310.493L372.807 309.203L376.787 309.343L378.857 310.413L382.417 311.043L385.837 314.303L388.027 321.943L391.037 323.513L393.317 325.823L394.637 326.223L398.087 329.623L398.467 331.713L399.217 332.453L398.787 334.503L397.398 334.463L396.027 335.593L394.648 338.633L395.217 339.223L394.837 341.143L394.977 341.843L393.997 342.573L394.117 345.553L393.197 348.993L393.167 357.753L387.337 365.813L386.107 368.643L382.798 370.733L381.727 372.273L378.877 379.293L376.157 382.533L372.837 383.563L370.577 385.673L368.937 388.643L368.227 391.863L369.018 398.423L365.467 407.883L361.997 408.043L360.747 406.883L360.428 404.623L359.287 403.873L355.907 401.043L354.867 398.663L354.837 396.653L355.617 396.433L357.298 397.663L358.527 397.153L359.257 396.023L359.127 394.773L360.347 392.463L359.937 390.123L358.518 387.983L357.327 387.083L351.697 386.503L349.847 386.933L347.727 388.613L346.387 391.493L346.488 392.803L344.497 394.213L341.777 398.073L340.437 402.413L341.837 405.383L343.057 406.493L343.988 412.283L343.738 414.993L342.097 417.803L337.587 419.633L333.238 408.463L334.587 406.873L338.157 407.153L339.798 401.463L338.687 400.313L336.477 400.933L336.607 401.483L334.768 400.823L331.577 398.443L329.367 398.053L327.208 399.093L326.697 400.963L324.697 402.863L321.208 402.883L318.967 401.293L318.107 396.983L316.208 395.373L314.907 395.573L314.587 395.013L314.937 393.203L316.447 393.773L322.907 391.663L323.648 390.483L323.307 389.183L324.277 388.643L325.627 389.063L325.757 388.383L327.548 388.693L325.488 391.193L326.777 393.133L329.238 393.433L330.048 394.173L331.148 393.693L333.197 391.733L331.467 388.363L331.867 387.223L331.298 386.363L330.067 386.083L328.777 387.563L328.537 386.553L330.867 383.443L332.428 382.493L333.587 380.533L333.798 378.583L334.777 378.073L336.877 378.283L337.057 377.203L336.127 376.263L336.597 374.973L333.217 373.013L332.157 375.463L331.187 375.143L332.337 373.633L330.187 373.563L329.497 372.943L329.887 370.403L329.387 369.893L328.387 370.893L325.928 369.803L324.298 371.273L324.447 370.903L323.307 370.483L322.307 370.933L320.697 370.523L319.637 371.343L319.458 372.313L320.557 374.103L318.697 376.213L316.717 375.693L314.527 377.943L314.667 380.633L315.548 381.653L314.247 382.783L313.607 382.123L313.367 384.933L309.027 387.183L306.337 391.303L305.557 393.563L302.497 394.873L300.257 396.843L298.137 401.413L298.877 402.133L296.958 404.083L296.507 403.713L296.437 405.443L298.277 404.053L297.077 408.023L300.208 406.233L300.678 405.413L300.037 404.863L300.847 403.903L301.447 404.953L301.048 405.343L301.488 406.063L298.208 408.593L296.298 408.653L295.697 409.523L296.387 411.303L298.208 413.333L299.667 417.763L301.087 420.003L302.667 427.853L304.247 431.183L304.257 433.013L303.747 437.023L302.187 437.823L301.997 436.553L300.617 436.983L298.247 439.993L296.377 440.763L297.157 441.323L299.717 440.683L301.477 437.833L302.337 438.083L303.067 437.443L304.827 437.303L305.717 438.043L304.178 439.523L301.837 444.833L301.738 448.123L303.597 453.473L302.428 460.443L302.417 465.063L299.697 465.873L295.497 471.023L293.377 471.253L293.657 475.023L294.857 476.493L295.117 477.833L294.768 478.093L293.407 479.523L294.247 482.193L293.458 483.213L288.827 481.003L286.467 478.263L286.037 477.183L286.768 474.373L285.187 472.473L284.657 473.913L283.247 474.953L282.798 476.623L283.458 477.003L283.298 477.653L281.217 477.223L278.057 480.343L274.268 480.713L272.127 481.873L271.928 479.683L274.907 475.263L282.548 476.613L283.057 474.883L282.217 473.693L282.057 472.093L276.708 471.713L275.477 472.793L271.867 473.763L269.077 473.853L266.587 472.623L263.277 472.713L262.437 472.913L261.548 475.893L262.257 476.733L262.187 477.893L257.497 477.263L255.207 478.153L251.907 475.193L252.087 473.943L253.277 473.823L252.837 473.273L250.317 472.683L249.007 473.463L248.417 472.743L246.617 472.723L246.817 473.723L249.247 474.393L251.697 473.823L251.507 474.783L252.367 476.473L250.307 477.043L249.477 478.423L249.507 479.413L249.917 480.693L250.287 480.913L251.887 481.953L259.428 484.273L262.458 484.523L263.327 485.373L266.787 486.183L267.937 485.983L269.527 483.823L269.937 484.723L269.048 485.813L269.747 486.263L268.757 488.113L271.048 486.593L273.777 486.603L274.187 487.083L274.197 488.333L275.947 490.373L269.557 497.143L269.057 498.383L269.227 500.823L270.307 502.533L277.477 503.963L278.197 505.763L274.277 505.693L271.837 508.433L269.107 508.753L266.988 510.053L266.787 512.273L269.018 513.513L269.477 513.063L270.937 517.703L268.567 516.533L263.437 518.053L255.927 518.613L250.487 520.143L247.817 521.373L245.467 523.393L241.777 524.493L240.287 522.273L236.847 521.393L231.717 521.663L227.967 517.563L227.437 516.233L225.237 516.133L224.427 515.123L221.427 513.903L223.157 508.083L222.747 504.753L218.657 502.273L218.087 503.673L214.867 502.593L211.767 504.133L209.377 501.173L211.017 498.993L209.497 496.933L208.637 498.553L203.077 498.913L203.307 496.373L200.447 495.863L198.637 489.833L198.167 485.713L195.287 485.643L195.347 484.323L190.357 483.833L191.507 480.063L189.367 479.133L192.137 477.143L181.937 463.053L182.347 462.823L181.897 461.473L181.947 460.953L176.727 458.123L176.227 458.803L176.247 458.873L175.577 459.273L175.067 459.813L172.857 459.243L171.377 458.143L170.497 458.673L167.337 458.333L164.077 454.583L158.847 454.283L155.497 460.193L155.577 463.643L149.247 471.823L144.767 475.333L141.967 473.383L140.247 475.913L138.307 481.443L136.637 479.913L134.907 483.423L132.667 482.403L129.808 484.843L122.688 481.183L123.757 471.503L112.128 468.833L111.798 469.313L109.857 468.913L108.537 472.643L106.327 472.263L104.048 480.703L100.077 483.083L104.548 487.603L95.1675 490.873L90.1175 488.963L88.1275 483.083L83.7275 480.493L72.2175 483.793L69.0175 480.653L63.8175 482.253L65.7575 486.883L64.4475 489.163L61.1175 489.853L61.2875 495.433L58.6275 498.083L52.3575 498.163L51.1575 495.303L47.6175 493.493L48.8575 492.613L42.7575 492.003L38.7175 486.903L34.7075 492.143L29.4975 492.023L28.7775 493.023L27.7075 493.083L24.0375 489.543L21.1575 487.973L21.2775 485.863L16.3975 484.553L15.0875 484.863L16.0875 480.983L15.6675 480.963L15.8475 479.903L17.4775 479.533L19.1175 477.023L18.6775 476.323L18.4875 475.693L18.9475 474.773L17.1475 473.133L17.5975 472.533L18.1175 472.923L19.6075 472.563L18.5975 470.863L19.1175 470.413L18.6575 469.153L19.4375 468.433L22.3075 468.963L22.3675 470.083L21.0575 469.953L22.7675 472.143L22.5375 472.573L23.8675 473.443L24.5775 473.263L24.5375 472.083L26.0075 471.693L27.1175 472.253L27.5475 471.793L28.8775 473.053L26.2575 476.083L26.6275 478.973L25.9075 480.873L27.5475 482.073L28.3275 480.263L28.9975 479.973L31.2575 478.733L32.0675 477.593L35.4775 475.373L36.4175 473.423L39.5975 469.793L42.9475 467.323L43.2775 466.453L42.6775 464.513L41.3775 463.313L42.2875 462.173L42.1375 460.513L42.1975 458.323L42.2575 456.543L41.2975 455.813L41.1175 454.823L40.5075 453.833L39.3275 452.613L37.8175 450.713L36.2475 449.003L33.5075 444.043L32.6475 439.643L32.9475 436.373L32.0475 433.633L32.7275 430.183L32.2975 428.763L28.4575 426.063L24.3675 422.123L22.1375 420.163L13.4375 417.023L12.4275 417.173L12.0775 416.363L7.7475 413.813L9.5075 415.843L9.5375 417.223L10.4475 418.593L8.6275 420.993L8.3775 422.193L7.7675 428.633L8.0975 430.423L7.3675 433.793L8.8375 440.823L10.1675 441.263L8.0475 442.193L6.9375 441.713L7.1675 442.503L6.0375 443.253L3.8275 432.223L4.6175 417.013L8.0075 391.033L8.2375 381.103L5.9975 350.863L6.4775 350.853L8.2175 350.933L8.6675 351.493L7.2375 351.323L6.8775 352.033L8.5075 351.793L9.2175 352.693L8.1775 354.423L8.2975 356.233L7.5575 356.573L7.9475 361.663L10.2675 361.023L10.7175 360.693L12.7475 359.473L13.2275 362.893L16.3875 361.973L18.6275 363.643L22.8375 363.313L22.4675 365.103L23.6975 368.223L22.2375 369.003L23.6675 371.213L24.6775 371.643L27.4175 369.413L28.3175 369.283L30.2475 365.233L31.6975 363.823L31.7175 363.033L30.2175 364.403L29.2675 363.453L26.0275 362.503L25.5575 362.243L25.2075 361.443L24.3275 361.253L24.7075 360.313L25.7275 360.083L24.8375 357.023L23.4275 356.163L23.4175 355.083L22.6075 354.183L20.1075 352.133L17.6375 351.033L15.6575 348.783L14.9475 346.323L13.1175 343.703L13.1375 340.833L12.3775 340.473L13.3275 339.483L12.6275 334.833L10.2375 335.693L8.0875 333.903L7.8775 335.333L7.0775 335.133L7.9075 336.373L8.1375 338.263L7.6975 339.263L6.9175 339.383L7.6675 341.533L6.8475 341.903L7.9875 342.623L6.8075 343.753L8.0275 343.843L8.6275 346.303L7.0875 346.043L8.0875 347.383L6.7275 348.703L7.9775 349.073L7.8775 350.123L5.7775 350.543L7.1675 325.343L5.8775 316.773L5.8175 312.563L6.9675 304.073L13.2475 278.613L17.9675 268.003L19.3475 266.353L20.6275 266.843L20.6475 267.793L20.0275 268.173L20.7575 268.883L21.1575 269.293L20.9175 271.203L20.5975 271.353L20.9375 272.573L21.7275 272.873L18.1575 277.273L20.0075 279.903L18.3875 280.633L16.9675 279.773L15.7775 285.643L17.4475 285.163L21.8175 287.263L21.9375 288.243L21.3475 288.593L21.9075 289.153L21.7675 292.073L22.6575 292.033L23.6775 293.213L27.4175 294.253L30.2275 293.973L31.5775 294.893L32.1575 296.773L29.5675 296.903L29.0275 297.573L29.2875 299.223L31.3075 302.453L30.5975 303.233L30.9075 305.383L31.8075 306.173L32.4775 305.983V300.783L35.3375 299.243L38.5475 299.903L43.5275 298.983L57.3775 305.623L59.9975 308.153L61.0875 308.413L63.6875 306.933L66.6175 303.173L68.1975 298.493L68.3875 303.153L69.6175 305.123L69.2575 307.923L70.8675 309.123L73.4375 314.153L72.3675 315.013L70.5575 318.763L70.8575 319.923L70.2575 319.883L69.9775 317.833L68.3775 317.363L66.0575 318.113L65.0075 319.643L65.5175 320.613L64.8375 322.203L63.0275 321.973L62.3175 322.763L63.2275 323.403L65.7175 322.923L65.8075 320.993L66.9275 319.223L68.7475 320.303L71.6175 320.093L72.6775 320.633L73.2275 320.203L72.6975 319.813L74.4875 318.753L74.4975 322.443L75.9575 325.163L79.6475 326.973L80.9475 326.963L91.0375 324.163L91.8875 323.293L92.7475 318.753L92.3075 313.413L91.4275 310.863L93.2475 307.713L94.6375 306.943L95.2775 305.573L93.8775 302.433L90.4075 300.353L86.6475 296.603L85.4075 291.993L83.2075 291.093L84.0475 287.263L85.6775 286.793L87.7975 287.843L90.4475 287.813L94.6675 283.663L96.9775 279.963L98.3775 274.993L102.338 269.993L103.518 269.873L105.607 271.843L106.817 271.643L107.698 270.223L110.058 270.733L110.027 269.063L111.707 268.053L113.268 270.473L115.298 270.263L116.967 268.863L116.507 266.643L114.647 265.903L112.918 266.613L112.228 264.303L111.077 267.273L109.228 265.593L107.567 266.733L104.238 267.313L103.997 266.823L107.997 257.673L110.397 255.013L109.228 252.443L111.037 252.733L112.118 252.273L116.257 249.453L118.067 246.493L123.257 242.943L129.297 245.983L131.278 246.663L132.657 247.353L133.667 246.983L133.807 245.973L132.657 245.463L132.907 244.463L131.718 243.353L134.327 242.953L135.827 243.433L137.467 242.653ZM133.497 231.603L138.607 232.363L137.507 232.783L136.417 234.193L136.767 235.853L138.967 236.153L137.147 238.413L135.827 238.973L134.727 238.213L133.047 239.013L132.337 238.573L131.397 240.553L131.328 242.463L129.558 242.933L129.588 244.403L125.277 240.533L123.217 236.173L121.378 235.043L122.128 233.933L133.497 231.603Z" fill="#002E5D" stroke="white" stroke-width="0.5"/>
<path d="M65.1975 269.513L62.9575 268.913L63.3075 267.863L64.7475 267.443L65.1975 269.513ZM140.947 222.573L138.937 221.633L137.637 219.793L139.567 216.903L140.267 216.843L142.287 220.743L141.717 222.903L140.947 222.573ZM115.847 203.993L115.427 206.453L117.517 213.483L115.617 216.073L113.237 226.773L112.237 228.023L112.747 226.143L112.507 222.873L111.427 222.623L110.347 223.283L110.597 224.443L109.087 223.073L109.487 222.043L108.787 221.443L106.617 221.813L106.237 223.073L104.507 225.713L104.377 227.083L105.877 230.023L106.387 234.943L107.807 238.413L110.857 241.723L111.527 244.743L111.297 247.093L110.407 244.663L109.427 244.503L108.987 245.413L108.167 245.333L108.027 246.563L109.527 247.933L106.597 249.783L106.087 250.953L105.527 252.943L106.127 253.203L105.787 254.303L106.207 256.043L105.267 256.063L104.637 256.783L104.797 258.743L102.797 259.923L101.947 261.263L100.407 261.843L96.1075 267.613L97.1575 270.073L91.0475 273.083L90.8675 273.643L87.2575 273.043L78.7375 276.503L78.6075 275.133L77.6675 273.823L77.0775 272.863L77.6975 270.443L74.4975 267.043L74.6875 264.843L76.5275 264.253V263.593L76.0075 263.253L73.9475 263.903L73.1375 264.693L71.9175 264.143L72.4575 262.683L71.6375 260.753L69.8175 260.823L69.5775 261.813L69.6375 262.873L71.5075 263.113L70.1875 264.293L71.4375 266.443L67.6575 267.923L67.4975 266.743L66.4975 263.993L66.5775 263.373L69.3875 262.823L68.7475 261.473L64.5675 258.463L61.0975 262.133L59.4375 262.943L59.9375 260.823L59.5575 258.913L60.4375 256.843L62.4875 256.403L64.9075 254.223L66.3475 254.713L67.0975 253.903L65.5975 247.753L64.5675 246.673L66.1675 245.653L66.7875 246.903L67.6975 246.993L69.3575 244.673L71.0075 244.393L75.6775 245.543L81.8475 242.043L82.0475 239.853L81.4575 239.153L74.1475 237.883L74.1575 236.883L75.8575 234.883L78.3775 235.713L79.4075 235.053L79.4875 233.543L77.1575 233.563L79.5375 229.613L79.3775 225.873L78.7275 224.493L79.1075 223.443L78.0375 222.063L82.5075 220.613L85.0275 221.363L90.2775 220.363L91.6975 221.013L94.5375 218.713L97.5375 218.553L99.5775 217.443L102.887 217.273L104.047 215.143L104.737 210.393L107.597 207.043L108.757 203.993L109.937 205.473L112.687 204.923L114.007 205.383L116.947 201.963L117.277 199.273L118.097 199.333L117.867 201.703L115.847 203.993ZM246.897 178.783L244.887 179.183L242.267 177.983L241.297 176.963L240.847 174.603L244.867 173.783L246.997 174.283L247.857 175.633L249.357 176.513L249.327 177.183L246.897 178.783ZM269.977 173.423L271.738 177.383L275.657 180.493L275.337 181.623L279.477 183.863L283.518 187.543L285.567 190.543L293.057 196.013L298.597 198.113L308.247 197.153L307.947 201.503L306.678 201.513L305.697 203.203L306.727 203.623L306.917 204.293L304.238 208.543L302.827 219.753L303.428 221.933L304.137 236.323L304.807 242.523L307.777 254.843L312.697 262.653L312.627 266.483L311.497 267.523L308.097 265.823L301.607 265.353L297.997 263.543L296.928 263.633L294.757 265.613L294.208 267.123L292.048 267.813L289.497 266.503L288.857 264.933L289.077 263.653L287.678 263.693L286.417 263.393L281.107 266.043L280.477 268.443L278.027 269.503L277.947 270.093L276.977 270.133L276.518 268.823L275.048 268.043L272.467 268.873L271.958 269.853L269.988 269.953L268.417 271.943L268.657 273.263L264.597 273.903L261.518 277.173L259.507 276.903L260.567 279.143L259.387 278.583L257.747 279.463L257.507 280.213L256.817 279.873L254.957 280.843L252.197 280.583L250.967 281.243L246.357 281.233L245.237 282.193L241.907 282.063L238.847 283.983L239.937 284.263L241.217 283.613L245.427 284.343L247.197 282.523L250.437 282.583L253.367 281.803L253.717 282.313L256.237 282.233L258.247 281.153L259.428 281.733L261.007 281.173L262.157 279.783L264.178 280.383L264.687 279.363L264.137 279.023L265.587 277.303L266.807 277.273L268.027 275.753L269.238 276.233L270.928 275.423L271.037 274.123L273.567 270.903L274.727 270.683L277.187 272.983L278.627 272.853L282.087 269.413L282.327 266.613L283.037 265.323L283.847 266.153L285.557 266.033L287.798 267.423L289.307 267.033L293.467 272.493L293.817 273.983L288.287 277.513L288.518 280.633L283.648 282.083L283.827 284.513L282.627 287.763L278.687 288.923L272.407 293.293L263.657 295.973L260.988 294.543L259.527 298.463L253.297 300.333L251.167 300.173L250.337 301.293L249.857 304.733L243.467 306.143L238.347 303.343L232.117 304.903L226.897 297.453L221.957 296.203L217.287 298.753L217.417 291.613L221.797 290.123L221.037 286.583L214.857 285.703L210.887 286.473L206.307 284.913L206.867 281.553L201.767 280.943L201.377 279.493L203.177 277.793L202.727 276.853L202.177 276.973L201.997 275.863L201.167 276.253L200.577 275.723L201.447 273.783L200.927 273.463L196.807 273.023L196.387 274.823L194.267 274.983L191.267 284.453L187.837 283.823L182.877 280.293L183.037 277.303L178.797 277.993L177.237 275.793L172.467 275.593L170.487 270.483L168.867 269.073L167.247 268.893L164.767 269.773L163.087 271.333L160.827 271.443L159.217 273.253L155.697 274.843L153.397 277.173L152.557 277.383L150.727 275.443L150.307 274.153L150.387 272.953L152.437 271.923L154.797 268.293L155.457 268.273L158.627 265.003L161.057 260.903L161.957 257.143L161.587 254.593L160.357 253.193L155.827 251.563L154.037 252.263L153.777 251.783L154.267 246.703L152.367 242.133L151.547 241.843L154.397 237.923L157.097 232.773L157.447 227.873L155.887 224.783L151.467 221.753L151.157 220.043L152.917 213.743L155.507 210.743L155.747 209.073L157.917 207.933L159.897 205.553L161.827 201.223L166.657 199.723L167.497 198.573L168.137 194.673L169.237 193.283L170.027 193.553L177.227 190.783L187.467 188.473L195.987 188.823L198.897 189.523L206.457 193.553L209.017 195.883L206.997 198.223L206.487 200.343L207.487 202.973L206.497 204.183L205.347 201.713L204.387 201.553L202.727 204.053L204.697 208.913L205.737 209.633L206.847 211.743L207.337 211.583L208.247 205.813L207.847 203.523L210.407 201.823L212.177 201.843L214.057 200.563L215.627 196.083L216.947 195.683L221.157 190.063L221.037 186.823L221.537 185.363L222.287 184.123L224.937 182.483L231.317 181.243L236.017 179.623L245.017 181.903L248.507 179.093L249.957 178.563L251.987 178.193L253.997 178.323L257.007 180.423L259.037 180.273L261.018 179.463L263.208 175.463L266.387 173.003L269.977 173.423ZM403.967 141.103L403.347 140.983V140.023L405.087 139.223L403.967 141.103ZM409.757 138.653L410.327 139.383L409.697 140.853L405.507 141.483L404.577 142.103L404.048 141.403L404.317 140.093L405.557 139.083L408.727 138.333L409.757 138.653ZM393.497 131.553L390.967 131.683L390.037 130.243L390.518 129.933L393.497 131.553ZM385.867 126.333L386.227 127.053L386.667 126.943L386.917 127.243L391.277 132.593L390.347 132.463L385.607 126.753L385.317 125.583L386.437 125.853L385.867 126.333ZM432.637 111.253L431.837 120.193L431.307 119.973L431.867 118.053L431.577 116.823L430.187 116.083L430.798 114.023L428.708 115.923L428.607 116.803L425.497 116.203L422.307 117.113L421.087 116.833L415.817 119.423L415.067 120.763L415.497 121.463L417.958 121.843L417.687 125.943L416.867 128.213L414.137 131.243L408.007 130.713L406.777 131.173L414.327 131.663L413.217 133.183L405.678 137.413L403.617 136.913L401.827 137.863L400.837 134.513L400.327 134.263L400.537 133.403L397.687 132.733L397.958 131.793L396.988 130.563L394.407 129.993L392.738 130.743L388.217 128.483L387.307 127.313L387.367 125.403L391.967 121.703L394.137 117.973L397.777 115.803L400.197 115.793L401.577 114.823L404.757 115.253L406.467 114.783L408.007 112.343L409.157 111.663L413.428 111.943L421.537 111.353L423.027 110.993L425.377 109.233L428.607 110.323L432.398 110.453L432.637 111.253ZM350.097 8.33269L348.997 9.35269L347.997 8.64269L347.157 9.34269L347.827 9.80269L346.447 9.65269L342.807 12.7527L334.208 23.5127L327.898 34.3827L326.467 38.2227L325.367 45.0427L326.518 51.0927L328.477 56.3327L336.317 66.3827L336.257 67.9727L339.067 71.9727L340.617 73.0927L342.157 77.8927L342.847 78.3527L343.607 77.9727L344.208 78.6527L343.447 80.6527L342.447 79.5627L342.037 80.0627L342.917 81.5827L341.697 80.6727L341.127 81.7027L342.107 82.2527L340.708 82.2327L340.587 82.9727L339.738 82.9527L339.398 83.6627L339.697 86.6227L339.167 87.3027L339.217 89.5827L337.857 95.3427L338.887 105.163L340.617 108.283L339.798 109.033L339.567 110.323L342.097 123.363L342.738 129.443L342.317 135.113L341.537 135.353L339.587 137.903L337.497 139.673L334.877 140.753L331.407 144.513L327.807 149.613L324.527 156.423L322.238 162.353L318.667 178.493L318.597 180.453L315.387 190.003L312.357 195.713L309.807 194.963L308.127 194.383L304.298 195.053L302.317 196.333L297.357 195.503L291.607 191.083L290.317 189.113L281.738 180.983L279.587 179.323L277.437 178.843L272.787 174.803L269.037 170.733L267.127 170.113L263.967 171.413L260.447 175.013L260.477 178.223L257.697 179.273L256.047 178.773L253.567 176.833L252.347 176.853L249.127 175.133L248.077 173.423L244.147 169.713L242.737 169.373L237.197 165.553L235.897 165.323L235.797 166.753L236.307 167.233L235.707 168.683L232.987 173.963L233.247 174.613L231.317 176.023L225.397 176.983L220.417 173.943L218.337 174.753L218.387 171.893L220.987 171.203L222.517 169.253L222.577 168.533L220.457 168.723L216.577 170.423L214.787 172.143L212.847 173.813L214.507 175.393L216.467 175.113L217.117 175.533L214.627 177.253L212.887 180.263L209.657 180.073L207.877 182.483L203.717 181.493L198.517 181.503L196.917 182.233L195.807 181.213L191.447 183.013L187.657 183.463L180.227 186.843L177.147 186.873L170.897 189.773L169.527 190.923L168.167 192.433L164.787 193.853L164.827 194.463L163.777 194.853L160.727 194.413L159.007 194.103L157.237 192.903L150.987 186.583L146.657 182.823L136.767 187.073L136.447 188.473L134.287 190.793L132.877 190.633L132.837 188.113L131.907 187.163L128.417 187.493L126.067 188.443L123.557 191.953L120.627 191.213L118.057 192.653L116.077 197.513L114.027 197.503L112.927 195.063L109.547 194.103L108.077 195.883L107.787 193.953L106.787 194.143L105.737 194.473L104.627 194.593L104.037 195.043L104.507 196.283L106.967 198.053L107.067 199.733L105.057 200.393L104.447 201.303L102.737 201.383L99.4475 203.013L98.5675 205.003L95.2575 206.383L93.5275 206.523L90.8275 205.393L89.4175 205.663L87.5775 204.743L85.7475 204.903L82.9675 204.793L82.1875 205.403L80.7375 209.463L81.4475 212.113L78.3775 215.143L78.3475 218.233L76.3075 221.093L77.1075 224.123L76.0575 225.523L76.1575 226.243L77.3975 227.113L74.2175 231.883L74.2075 232.853L69.3275 238.703L63.7175 239.013L63.3575 239.583L63.8075 241.943L61.6575 241.753L57.2275 244.423L54.6875 248.123L55.8575 250.743L59.0075 254.793L57.4675 256.693L56.0275 262.863L53.3175 265.383L56.7175 264.433L58.6975 264.923L61.1675 264.983L61.7675 266.123L60.4375 268.873L62.1575 267.903L62.8975 268.463L60.7875 271.123L61.0575 273.823L57.6675 272.653L56.3075 270.683L52.5675 269.283L48.7475 271.223L48.9175 271.953L47.6475 273.133L46.3675 272.583L45.7275 272.893L45.1475 274.623L45.9175 274.683L45.7575 276.063L39.0275 274.333L37.9475 270.443L36.9375 269.513L35.7075 266.643L33.6475 264.733L32.5575 261.773L31.2075 254.023L28.8375 251.183L25.3075 249.063L24.0475 267.383L24.0575 268.473L23.7775 269.023L22.8175 268.313L22.8275 265.563L21.3375 262.893L20.3175 262.833L20.8575 260.593L21.3575 248.243L22.6275 242.423L27.4675 228.733L39.8475 203.403L42.4875 201.893L46.5875 196.673L51.8175 188.563L54.4275 183.013L55.6875 181.693L57.7375 181.883L59.3575 181.023L63.3275 176.353L71.6175 162.483L71.4475 161.863L71.8675 161.553L72.3075 161.793L72.6875 162.423L75.7775 160.733L76.6075 161.573L83.9175 163.943L92.2775 167.673L94.3675 167.683L103.767 165.363L109.457 163.093L113.977 160.583L122.127 154.293L125.597 152.813L128.837 153.403L132.387 152.603L142.507 156.553L148.757 157.673L154.037 157.893L163.387 156.853L166.997 156.053L172.627 153.683L179.037 153.183L183.487 151.373L200.967 137.653L202.887 135.553L216.667 114.893L225.657 98.2027L227.377 96.1527L238.197 71.3227L247.747 61.2427L251.037 56.6527L257.607 43.9327L260.857 40.4727L260.257 41.7427L263.447 41.0927L263.477 40.4227L264.708 41.3927L266.937 41.8327L270.627 42.1727L273.798 41.6727L278.557 42.4727L281.548 42.4927L288.738 41.2527L300.537 36.6727L311.367 30.1827L338.877 6.01269L343.727 2.64269L346.357 1.38269L350.937 0.252686L353.157 0.442686L356.157 2.21269L351.548 6.27269L350.097 8.33269Z" fill="#002E5D" stroke="white" stroke-width="0.5"/>
<path d="M474.907 707.813L474.247 708.523L473.377 708.043L472.057 708.883L473.947 711.573L476.567 713.143L476.687 714.203L475.097 713.413L471.427 714.353L470.837 711.463L472.837 710.833L471.977 709.363L471.527 709.503L470.517 708.513L470.387 707.673L474.907 707.813ZM441.487 697.183L445.547 699.883L449.087 705.103L450.107 704.873L452.827 705.653L454.737 706.903L454.967 711.443L458.007 714.823L460.177 716.263L461.637 716.423L463.127 717.833L464.547 717.903L463.957 719.553L464.827 720.193L466.717 719.073L469.067 719.653L469.817 720.653L469.157 723.963L469.687 725.323L470.837 724.903L473.147 725.643L473.187 727.273L475.777 726.833L478.587 727.803L481.767 727.843L483.187 729.163L486.627 728.423L487.047 727.503L484.717 726.663L482.647 723.813L483.077 722.283L484.387 722.303L485.777 721.033L489.247 723.123L491.977 722.193L493.257 720.883L495.177 720.763L495.067 719.323L493.937 718.063L494.707 713.583L493.017 711.013L493.137 709.903L496.277 710.553L496.817 711.483L498.017 711.793L499.657 714.103L503.557 716.943L504.647 717.433L507.657 716.823L508.407 717.623L507.267 719.033L506.967 720.553L508.697 725.393L510.037 725.473L512.867 727.293L514.217 727.203L512.997 729.973L513.177 733.243L515.377 735.013L515.647 736.243L516.907 736.263L517.287 736.963L518.687 737.303L520.327 739.573L522.707 741.123L523.647 742.293L523.577 744.253L523.607 745.343L524.567 746.703L524.707 750.003L522.187 751.773L522.157 752.423L520.327 752.503L517.837 750.453L518.237 751.433L517.737 753.273L518.867 754.313L516.687 755.333L517.347 756.833L517.887 757.813L519.847 759.153L521.997 760.133L522.847 759.623L523.987 760.803L523.767 762.333L521.007 762.823L522.917 764.683L521.107 765.813L522.327 766.893L521.357 766.833L518.067 768.553L520.417 770.353L519.137 770.813L518.247 770.373L517.987 771.503L516.887 771.123L516.197 771.983L513.657 770.943L509.617 770.273L507.367 770.493L505.797 769.873L506.527 768.823L505.427 766.943L504.667 767.563L505.117 769.403L503.427 770.293L502.437 768.323L500.167 767.263L497.687 767.903L496.987 766.763L496.347 767.813L496.817 768.343L496.067 768.993L495.787 768.363L494.977 768.873L493.687 767.783L491.967 767.673L491.837 768.433L490.517 768.643L489.067 768.483L486.737 767.193L485.637 767.703L486.727 768.593L486.457 768.883L482.607 768.583L482.487 769.353L483.747 770.273L481.237 770.413L481.107 771.813L480.187 773.153L477.227 773.433L476.507 774.263L473.777 774.253L468.827 779.963L473.127 782.883L474.377 782.903L475.517 783.763L477.217 783.603L477.847 782.843L477.907 783.773L475.807 784.193L474.007 783.803L466.837 779.393L461.257 774.723L455.927 771.753L453.547 769.703L452.587 769.543L446.177 762.233L441.437 758.363L437.797 756.783L436.287 756.713L432.947 754.673L420.697 749.733L412.387 747.263L405.407 743.513L399.857 733.943L398.757 727.463L399.287 726.443L400.127 726.043L402.817 727.963L400.007 726.523L399.747 727.153L400.607 728.043L400.597 728.863L399.707 728.493L399.137 729.463L399.937 733.523L401.157 735.713L401.897 735.823L402.357 735.503L404.767 735.513L406.167 734.493L406.887 733.113L406.047 731.843L402.937 729.883L405.147 730.103L407.087 731.373L407.847 731.023L409.087 732.423L410.187 732.443L411.247 735.243L414.737 735.073L416.087 733.373L414.407 731.663L414.627 729.693L416.857 732.273L417.947 731.983L418.767 729.783L420.527 729.073L420.187 727.583L422.067 727.913L422.697 727.483L422.347 726.703L421.177 727.253L419.667 726.613L417.837 727.033L417.727 727.613L416.677 726.323L415.887 726.733V723.503H414.587L414.357 721.613L412.757 720.343L413.447 718.383L411.307 718.813L411.367 716.963L410.767 716.613L409.667 718.193L409.237 718.073L409.157 715.363L408.367 716.453L407.497 715.713L407.207 713.653L408.887 707.793L413.367 704.233L414.947 701.653L416.517 700.833L417.457 701.423L419.787 701.193L421.017 702.123L421.597 703.443L421.617 701.733L420.477 699.803L421.277 699.193L422.917 700.293L423.037 698.633L424.837 699.183L426.717 697.563L428.127 697.843L430.187 696.423L441.487 697.183ZM461.827 694.333L463.937 695.763L467.267 695.343L469.957 698.403L470.127 699.293L469.867 700.493L464.927 700.103L461.047 705.443L460.387 705.613L459.957 704.693L456.417 702.303L455.177 696.983L453.997 696.993L453.387 694.423L454.507 694.393L455.607 695.463L455.947 696.473L455.517 697.293L456.207 698.993L457.047 698.883L457.187 697.493L457.607 697.483L459.787 698.183L460.867 699.383L461.497 699.233L461.827 698.123L461.387 695.823L461.827 694.333ZM521.097 696.513L522.407 697.053L522.927 697.153L526.467 700.383L525.897 701.473L527.947 703.163L528.127 705.543L530.097 706.693L531.807 706.983L532.217 706.573L532.597 705.513L532.877 704.943L533.047 701.183L534.157 702.233L536.717 701.303L538.797 701.493L540.727 702.973L540.327 703.863L540.727 707.023L541.647 708.863L541.257 709.803L543.857 711.863L547.527 712.843L549.367 712.683L551.427 713.583L553.437 712.443L556.477 713.573L560.047 713.993L560.977 718.673L564.937 723.443L566.277 726.653L565.437 728.023L561.987 729.443L560.917 732.913L559.437 734.813L554.557 737.623L548.937 745.173L546.847 751.273L545.517 753.373L541.627 756.773L539.357 760.953L538.057 766.853L537.997 770.673L539.767 788.433L539.297 792.253L531.967 788.653L532.687 787.373L532.657 786.853L532.187 786.973L532.317 783.853L528.407 775.693L525.697 771.753L524.817 768.993L526.397 763.713L526.527 761.283L529.447 757.863L530.987 754.803L530.467 754.053L529.777 754.283L525.337 752.333L526.037 748.853L527.337 747.453L525.027 744.453L524.247 741.123L522.347 738.763L520.727 737.963L519.937 735.653L517.327 735.093L515.147 732.903L514.907 732.043L516.567 730.723L517.697 728.053L517.577 727.063L516.267 726.083L516.577 724.413L513.397 721.943L509.467 721.553L509.897 720.243L509.257 718.183L508.667 717.843L509.697 715.353L508.317 714.353L507.427 711.703L507.877 710.063L509.407 708.003L509.467 706.143L508.067 703.753L503.127 703.683L502.447 703.103L504.697 700.183L505.857 700.883L506.867 700.733L507.347 699.613L506.037 698.903L507.847 696.263H511.047L513.317 697.663L515.767 702.093L517.637 701.653L518.747 700.253L519.677 696.623L518.757 695.403L518.827 694.613L519.847 694.843L521.097 696.513ZM557.697 696.063L557.347 697.383L556.607 697.593L557.087 699.093L555.987 697.963L553.847 699.243L551.637 698.043L557.697 696.063ZM476.607 688.803L480.937 689.613L483.477 693.403L480.047 697.543L479.397 699.623L477.557 697.043L476.217 693.623L473.817 691.493L474.457 690.033L476.607 688.803ZM561.527 689.523L559.527 692.143L559.357 693.833L558.127 693.443L557.657 694.583L557.407 693.383L559.237 691.503L558.707 690.483L559.337 689.733L560.477 690.273L561.527 689.523ZM528.697 689.273L529.257 692.273L527.567 691.343L525.947 688.103L527.157 687.253L528.237 687.993L528.697 689.273ZM454.287 679.683L452.547 681.143L452.407 679.803L455.397 677.343L456.667 677.283L456.497 678.673L454.287 679.683ZM576.057 672.693L573.467 678.723L570.837 677.113L569.187 677.013L568.247 675.533L570.677 675.053L572.297 672.973L573.347 672.523L574.727 672.123L576.157 672.233L576.057 672.693ZM581.987 676.403L583.367 678.343L587.087 680.143L597.027 680.253L601.567 681.413L603.557 680.943L607.277 681.283L615.537 684.923L619.027 691.433L619.777 695.183L619.797 696.833L618.177 699.713L613.767 700.393L607.977 698.313L607.157 697.443L601.217 695.893L596.647 695.143L593.027 695.363L587.037 698.003L582.397 701.773L577.087 708.173L575.657 711.193L571.947 715.273L568.267 716.003L562.927 715.283L560.587 711.003L561.417 710.873L561.937 711.373L561.597 711.663L562.977 711.873L562.947 710.963L563.947 711.063L563.767 710.673L558.297 710.263L543.697 705.523L542.447 702.783L542.757 700.813L540.987 698.983L541.177 697.733L542.337 697.113L542.937 697.603L542.947 700.073L543.627 701.713L544.627 701.863L544.497 702.653L546.147 702.993L547.717 701.623L552.877 701.643L555.517 704.563L553.747 708.523L554.547 708.103L554.877 708.833L557.717 709.643L560.217 708.673L559.327 706.973L558.427 706.743L559.807 702.983L563.577 700.503L561.307 699.563L560.477 698.613L560.127 696.833L563.447 695.123L563.427 694.383L565.907 693.613L568.427 694.573L568.747 693.843L566.857 691.603L566.467 690.013L570.607 691.453L571.377 692.163L571.337 693.863L571.917 694.833L575.537 692.793L578.507 692.063L579.347 691.073L581.667 690.743L582.667 691.593L581.397 693.443L581.027 695.283L580.257 695.673L581.207 696.163L582.127 695.393L583.607 695.223L586.507 691.923L591.967 690.503L592.367 690.183L591.107 689.803L586.417 690.543L585.377 689.983L584.847 689.753L582.827 691.253L582.047 690.383L580.787 687.043L582.407 684.523L582.447 683.023L580.367 679.463L579.347 678.873L579.577 678.313L578.417 677.273L577.507 677.443L577.387 678.103L576.037 677.803L575.467 676.593L575.847 674.993L578.367 673.723L579.557 672.123L580.827 673.153L581.987 676.403ZM581.167 671.023L580.667 671.153L580.487 669.983L579.157 668.693L579.127 667.173L578.077 666.243L579.067 666.413L579.977 667.563L579.587 667.883L581.027 668.713L581.167 671.023ZM560.097 655.173L558.317 656.123L556.437 655.633L558.177 655.033L560.097 655.173ZM505.667 653.673L504.137 656.983L503.517 653.953L504.537 651.253L504.957 651.503L504.537 652.443L505.667 653.673ZM429.447 645.613L429.787 646.573L427.487 648.593L425.787 653.013L423.407 648.233L426.937 645.303L427.517 645.713L429.717 644.183L429.447 645.613ZM498.987 643.423L498.957 647.643L501.037 648.883L501.777 650.203L502.277 650.083L503.257 650.863L503.467 651.903L502.837 652.003L499.317 648.373L496.427 647.443L494.507 644.333L495.257 643.893L496.827 644.793L498.097 643.433L498.987 643.423ZM470.927 640.343L470.147 640.323L470.877 639.143L472.487 638.753L472.717 639.173L470.927 640.343ZM504.707 642.443L503.937 645.293L502.527 644.643L500.407 645.253L500.007 644.413L500.867 641.263L502.017 639.873L502.127 637.993L502.797 637.823L503.997 638.993L506.297 639.593L504.707 642.443ZM431.257 628.713L430.197 629.563L429.597 629.013L429.257 629.783L429.777 629.653L429.457 630.893L431.737 633.093L432.297 636.313L433.567 638.983L433.187 639.893L432.247 639.463L432.177 640.023L433.997 641.193L435.357 639.003L434.857 641.953L434.247 642.483L429.117 638.893L428.577 631.093L429.227 628.423L428.387 626.823L428.927 626.233L430.447 627.133L431.257 628.713ZM403.417 604.583L401.657 605.853L403.907 605.583L397.317 608.173L401.147 604.683L403.427 604.153L403.417 604.583ZM592.657 541.923L593.577 542.733L592.327 543.493L591.997 542.773L592.267 542.303L592.657 541.923ZM446.757 499.763L447.317 500.763L445.437 499.523L443.697 495.723L444.347 493.203L445.787 494.653L445.097 495.953L447.057 498.173L446.757 499.763ZM521.987 496.543L521.807 498.543L520.297 501.663L520.667 502.883L517.687 504.503L515.977 502.633L514.617 502.523L512.187 496.573L512.827 495.833L514.307 495.813L515.427 494.143L516.627 495.983L517.897 496.543L519.397 492.643L518.577 490.883L519.377 490.023L521.427 493.083L521.987 496.543ZM427.937 470.843L431.387 474.813L434.467 476.523L434.937 478.813L433.387 477.163L426.547 474.913L424.867 473.553L420.997 468.493L416.667 466.523L415.867 462.883L420.977 464.733L421.957 466.833L425.207 468.443L427.937 470.843ZM453.307 448.333L457.887 451.103L462.947 452.433L471.717 452.773L477.217 455.023L486.807 452.453L489.157 456.383L492.397 458.043L494.907 458.003L501.787 455.843L504.487 454.373L507.957 451.223L512.437 448.723L514.377 453.593L514.587 455.613L514.047 455.843L514.027 454.713L512.827 454.483L509.377 457.713L508.537 461.733L509.207 464.653L508.977 466.453L506.487 467.963L503.317 466.773L502.797 464.533L501.367 464.093L500.177 464.823L498.927 463.993L498.167 464.663L497.057 468.883L497.417 472.313L500.627 474.023L503.017 477.263L503.707 479.703L506.097 483.363L506.417 487.203L503.837 490.813L503.267 489.733L496.727 487.843L494.707 490.223L495.687 491.403L494.477 491.913L494.427 493.703L489.517 496.103L489.347 497.263L492.277 499.283L495.037 498.983L497.477 498.323L499.337 496.303L500.967 495.933L502.207 494.673L504.807 494.453L506.257 493.203L507.907 494.993L508.627 498.713L510.217 500.823L509.137 501.473L508.657 499.543L507.527 501.283L508.437 502.903L511.477 504.353L511.507 505.983L510.597 505.803L508.597 507.333L506.367 507.213L504.797 508.063L496.607 508.513L495.177 509.293L495.897 510.743L495.227 510.893V511.703L496.767 512.063L496.867 512.973L502.657 512.123L503.647 511.473L504.807 511.973L505.617 511.853L506.967 511.953L508.687 511.203L511.457 511.813L512.197 510.443L510.727 509.693L510.677 509.063L511.087 508.723L511.797 509.323L513.407 511.103L514.717 513.853L514.597 517.053L515.357 517.633L516.157 517.383L516.667 520.023L516.037 521.063L514.227 521.373V523.943L512.407 524.603L511.407 526.473L511.657 527.073L513.247 527.083L514.287 526.713L515.537 525.963L516.147 526.613L517.167 525.463L517.497 523.343L520.037 521.413L520.767 520.933L521.277 515.283L523.597 509.233L524.677 509.113L526.147 507.653L530.197 509.243L533.927 505.823L540.737 509.543L540.647 512.903L539.857 513.723L538.357 518.003L537.687 518.143L535.497 521.993L534.767 525.223L534.037 525.403L533.667 526.293L533.277 528.363L534.017 529.813L535.267 526.493L536.807 525.793L536.377 525.233L536.677 522.863L542.967 522.223L542.087 520.983L542.047 519.323L540.637 518.513L542.177 517.383L542.127 515.233L542.637 516.233L544.457 515.603L542.917 518.063L543.317 518.653L544.167 519.023L545.267 517.763L546.047 518.523L547.677 518.083L549.427 519.253L549.037 520.553L550.007 520.603L550.647 521.423L550.327 522.243L548.477 521.133L546.657 521.593L545.327 520.083L543.127 519.453L542.847 520.453L544.087 520.483L545.007 523.353L544.327 524.763L545.637 523.963L546.437 524.003L546.837 524.813L547.627 524.653L548.267 523.903L549.207 524.723L549.647 523.643L551.447 523.413L551.267 524.603L551.907 525.103L551.127 525.933L551.107 527.403L553.067 527.863L554.437 529.213L555.237 528.203L555.917 524.273L554.687 524.393L553.507 523.223L553.087 521.853L554.267 519.753L555.147 519.463L556.067 520.783L556.517 518.713L554.707 519.093L554.877 518.343L555.287 517.793L557.017 517.983L558.497 516.243L559.087 514.713L557.427 514.373V512.273L558.747 511.753L558.247 511.143L559.697 510.543L559.857 509.933L559.497 509.463L557.967 509.583L558.397 508.933L556.527 506.323L557.357 504.683L557.277 503.273L555.157 500.853L555.717 497.163L558.397 498.673L561.137 501.843L564.067 503.163L566.467 505.503L572.237 504.593L574.797 507.173L574.167 507.373L573.027 510.453L578.057 514.963L572.697 520.153L569.027 519.903L564.177 524.123L565.247 529.443L565.107 533.203L566.447 533.133L565.457 538.363L572.347 540.383L573.137 537.173L575.887 536.343L576.997 538.093L581.577 536.083L582.927 537.313L590.017 539.573L592.517 541.913L591.697 543.103L592.047 543.753L584.317 547.763L582.977 549.103L579.897 551.573L576.597 555.603L573.277 564.393L570.147 573.633L570.947 576.333L570.677 577.113L570.397 577.833L571.097 580.253L573.277 583.563L574.837 584.633L585.297 590.093L593.897 590.973L601.007 597.763L604.917 602.943L605.247 606.093L606.257 607.063L604.957 611.013L605.307 614.543L606.337 616.113L605.977 618.263L604.937 620.183L603.317 620.943L600.657 624.183L598.587 625.053L598.127 625.793L596.697 625.353L595.747 626.013L594.567 625.673L592.387 630.053L590.597 629.483L584.597 629.503L581.197 628.603L575.737 630.213L571.707 632.803L570.057 632.913L566.417 635.833L566.197 635.253L565.567 635.353L562.247 640.683L559.197 642.943L558.347 644.763L558.107 648.383L558.917 653.103L556.997 654.643L555.257 654.833L554.127 653.683L555.087 649.973L554.987 647.773L556.657 644.903L555.997 644.293L551.857 644.763L547.507 646.883L544.887 651.193L544.917 651.833L545.917 652.473L547.747 652.453L548.307 653.073L548.947 654.743L548.097 656.293L548.287 657.473L549.957 656.703L550.527 657.013L550.067 657.563L551.097 658.043L552.757 655.683L555.277 655.743L555.877 656.283L555.297 657.513L557.427 657.363L557.787 656.493L559.137 657.143L560.847 656.543L560.437 655.463L561.427 655.353L566.257 657.103L568.477 659.483L568.367 661.693L567.607 661.863L566.987 663.213L566.977 665.983L564.767 668.723L562.117 667.143L560.447 668.073L560.077 666.753L559.037 666.283L558.607 665.723L557.207 665.133L557.697 666.713L559.477 666.893L559.957 668.323L559.407 668.873L560.847 669.223L559.297 670.583L560.237 670.633L560.477 672.603L561.467 673.623L561.037 675.573L563.307 676.023L562.637 677.843L567.057 686.143L566.777 688.563L566.207 688.043L563.777 688.083L562.877 688.753L560.187 688.303L558.447 689.393L557.737 690.883L556.457 691.463L554.067 694.153L550.587 696.103L546.897 696.063L540.347 692.713L538.057 690.453L537.007 687.903L531.267 685.903L530.647 686.353L531.987 686.943L532.127 688.253L529.177 688.433L527.337 686.573L524.527 685.293L523.027 683.373L519.737 681.313L517.017 678.023L512.167 675.623L506.007 673.873L501.767 671.843L499.087 669.803L491.597 667.793L490.797 667.053L492.677 667.153L505.017 671.263L508.377 671.593L519.217 677.123L520.277 675.863L519.767 674.143L517.367 671.363L516.987 669.783L513.057 667.553L512.197 666.243L511.197 666.943L511.687 668.113L512.797 668.823L510.297 668.623L508.567 665.973L509.707 666.003L510.567 664.433L509.667 665.083L507.867 664.643L504.647 659.843L504.597 657.113L505.267 656.083L506.227 656.893L505.777 658.193L508.707 657.913L510.167 658.533L510.887 657.893L511.347 656.023L512.737 655.183L516.757 656.093L517.987 655.553L518.177 654.593L517.107 650.993L515.917 650.953L515.057 650.063L514.227 650.113L513.637 651.543L512.807 651.753L511.687 650.993L511.967 649.443L509.097 650.053L507.567 649.483L506.507 650.433L504.197 649.473L503.737 648.813L503.957 646.333L507.847 643.643L507.217 642.603L505.687 643.373L505.187 643.303L505.247 642.713L508.137 639.403L506.857 639.583L506.267 638.523L503.687 636.713L499.947 637.253L495.617 641.753L495.777 643.353L493.487 644.563L492.217 643.253L490.687 643.133L487.617 641.263L485.337 641.743L484.067 641.133L481.287 641.233L478.057 639.673L474.667 638.913L473.227 639.443L472.607 637.663L471.077 637.183L469.667 637.753L469.797 636.483L468.227 634.863L467.007 635.543L465.697 634.393L464.547 634.243L463.657 636.353L462.417 637.333L462.797 638.143L463.817 637.953L464.167 637.273L466.507 637.703L467.297 638.313L466.927 639.123L468.007 639.763L468.157 641.703L465.117 642.303L460.967 641.153L458.587 641.433L459.707 639.793L460.487 640.753L461.027 640.263L462.727 641.473L463.437 641.273L462.657 640.783L462.177 637.343L459.997 636.723L457.417 639.153L456.037 639.393L455.047 638.773L453.777 636.543L452.307 637.463V638.493L451.647 638.863L450.757 636.603L448.827 636.653L448.177 638.833L448.827 639.963L447.917 640.163L445.917 640.663L443.987 638.803L440.697 638.583L439.477 637.633L438.837 636.973L439.667 636.693L437.897 634.403L438.027 633.893L439.837 633.403L437.397 628.273L438.187 627.693L439.307 628.223L439.247 629.073L442.517 629.663L443.177 630.573L443.967 630.183L444.997 626.443L445.507 625.523L446.307 625.393L447.467 622.563L446.797 619.723L445.387 620.073L444.807 621.043L444.337 625.103L445.377 625.893L442.917 627.543L442.017 629.513L440.777 627.523L439.947 627.173L439.197 627.703L438.137 626.853L438.957 623.653L437.867 621.133L437.567 617.983L432.767 614.723L429.227 613.233L425.907 609.663L423.087 608.313L422.917 606.743L423.807 606.193L424.427 607.153L426.237 607.373L426.417 607.913L428.647 607.743L429.917 608.553L431.077 608.233L431.427 606.993L433.487 605.843L433.767 604.363L433.347 603.753L432.257 603.513L430.047 601.543L427.917 601.473L426.737 602.503L427.397 603.553L426.917 604.693L427.667 605.423L424.577 607.033L424.077 605.733L422.207 605.583L420.197 602.943L417.887 603.293L418.107 602.043L420.817 597.633L421.687 598.943L425.947 598.263L429.607 595.343L433.037 594.603L434.677 592.233L434.857 590.963L434.627 589.643L432.077 585.953L433.367 579.703L432.877 577.293L429.667 571.903L429.727 568.663L429.127 566.793L424.637 562.293L423.987 560.393L422.667 559.673L422.127 558.083L421.047 559.123L421.397 560.603L422.257 560.323L420.707 563.043L418.167 563.413L416.227 562.383L417.497 557.633L418.317 557.233L419.527 557.833L421.017 557.023L424.517 557.143L424.357 557.723L425.107 558.213L426.237 557.603L426.657 556.663L424.847 557.483L424.737 556.943L426.227 554.573L426.907 552.133L425.907 545.203L423.057 538.583L420.407 535.813L410.527 529.533L406.337 528.223L397.307 527.213L395.887 526.103L395.747 524.443L396.907 523.593L399.427 524.133L400.207 524.933L403.337 525.253L404.937 524.713L413.027 526.563L414.767 526.613L416.797 525.613L417.187 526.633L417.727 525.843L419.217 525.553L419.467 524.753L418.837 525.023L417.527 524.373L417.707 523.833L418.697 524.063L418.627 523.573L419.387 523.563L419.237 522.973L418.467 523.333L415.027 521.983L416.167 524.433L415.697 524.513L413.597 521.423L408.487 517.643L404.387 511.293L402.957 510.533L400.767 509.943L395.247 510.603L392.577 510.113L389.267 508.583L386.987 506.643L390.867 506.493L397.567 504.573L403.287 505.793L406.167 506.933L407.357 508.103L411.547 509.403L416.377 508.573L420.127 506.633L422.827 504.403L425.387 504.113L427.297 504.673L429.777 503.843L430.127 505.363L429.587 505.623L432.377 509.393L434.567 509.243L435.467 507.483L434.897 506.253L435.947 505.513L436.697 506.773L440.677 509.933L442.507 509.483L444.707 507.493L445.477 504.113L446.187 503.933L447.177 506.733L447.997 503.983L450.647 504.143L453.497 503.113L456.437 500.473L457.357 498.093L458.107 495.383L457.197 493.183L457.337 487.093L456.777 484.483L455.587 482.443L454.227 482.703L454.607 481.963L455.377 481.483L456.977 482.783L457.307 483.873L459.627 485.163L461.447 484.583L467.087 481.023L470.327 480.723L472.027 481.443L473.237 481.163L476.527 476.683L477.797 472.083L477.547 469.143L477.977 464.023L476.657 460.233L469.007 455.983L457.277 454.983L451.637 451.023L448.017 449.543L446.397 449.563L445.157 447.453L443.547 440.843L447.117 446.133L453.307 448.333Z" fill="#002E5D" stroke="white" stroke-width="0.5"/>
<path d="M353.117 710.153L352.678 711.993L351.127 713.353L350.428 713.103L349.307 710.863L349.597 710.463L348.678 709.543L348.377 707.303L352.007 706.393L352.787 707.033L352.337 708.443L353.117 710.153ZM334.298 706.453L334.607 707.413L332.268 706.773L333.157 704.923L334.298 706.453ZM336.137 702.383L337.357 704.233L335.557 704.413L335.127 702.613L335.847 701.563L336.137 702.383ZM358.708 696.253L360.678 696.783L361.458 696.333L363.268 697.083L363.787 699.073L362.208 699.083L361.607 697.863L360.717 697.933L360.428 697.053L358.627 696.853L358.708 696.253ZM335.377 694.843L334.347 696.653L333.687 696.773L332.467 694.723L334.327 695.013L335.197 694.383L335.377 694.843ZM295.037 693.593L297.327 694.213L297.678 696.383L301.678 700.463L305.687 701.273L311.477 707.243L313.148 710.783L316.977 712.053L317.917 714.503L319.678 714.033L322.898 710.033L322.217 708.883L320.627 708.193L320.497 707.393L321.257 707.433L323.807 710.253L323.627 711.303L322.937 711.103L322.648 711.603L323.877 713.113L324.687 716.343L326.947 718.883L328.597 719.903L329.967 718.743L330.447 716.763L333.287 719.473L333.877 719.063L332.697 718.093L332.708 717.283L330.398 714.233L328.768 713.383L328.837 712.713L331.747 712.413L329.958 712.963L329.928 713.653L331.857 713.953L338.717 720.973L339.007 723.253L338.567 724.123L340.317 723.653L339.467 722.923L339.377 721.793L340.917 723.603L339.127 724.313L329.907 725.433L327.947 726.613L327.077 727.573L326.747 729.473L324.847 730.923L321.738 728.033L318.197 725.933L314.127 721.323L310.937 716.493L306.447 713.583L300.708 706.283L299.697 700.843L295.887 696.903L295.137 695.613L295.037 693.593ZM325.027 690.563L327.497 693.963L325.527 695.833L324.757 695.813L320.238 692.223L319.238 692.443L318.077 693.803L317.087 693.583L316.488 692.343L317.648 691.733L318.317 692.083L319.367 691.073L319.947 691.173L320.007 691.973L322.967 691.933L323.768 692.873L324.967 692.903L325.527 692.293L325.027 690.563ZM331.007 683.913L333.148 684.793L334.567 686.253L332.437 685.793L331.337 687.073L329.657 686.873L329.337 685.263L330.798 683.203L331.007 683.913ZM304.477 681.213L305.877 682.183L307.997 682.053L310.458 683.863L313.238 682.743L313.617 685.313L312.238 685.653L309.467 684.313L307.467 682.393L302.148 682.423L299.187 679.243L299.648 677.743L301.467 677.203L303.617 679.373L304.477 681.213ZM353.887 673.433L354.687 673.933L354.307 675.003L355.537 675.823L354.917 677.913L355.798 678.593L357.447 678.623L357.798 680.833L357.377 681.683L356.337 681.933L354.917 687.193L354.277 688.103L353.648 688.163L353.548 687.563L352.798 689.213L354.298 691.313L357.268 691.993L358.928 690.333L359.417 688.063L361.157 687.263L362.317 687.543L361.617 690.333L361.867 693.033L361.548 693.633L361.238 693.083L359.257 693.013L356.847 693.573L355.607 695.443L354.157 695.993L352.377 699.243L347.357 697.463L346.307 697.633L348.037 699.433L345.617 699.113L343.277 700.453L343.387 699.543L344.657 698.463L344.377 697.973L342.627 698.283L342.747 695.873L339.887 693.483L339.268 692.233L339.107 688.493L339.777 687.553L338.077 686.713L337.857 684.773L340.268 684.793L341.917 682.463L345.887 680.433L347.768 677.993L349.217 677.743L350.347 675.833L353.117 674.053L352.467 673.503L353.887 673.433ZM363.548 673.293L364.537 673.923L365.827 679.613L364.768 679.573L363.727 678.673L360.947 679.663L359.007 679.483L359.387 677.733L362.347 677.623L363.507 676.793L359.217 676.603L356.877 677.673L356.537 677.373L356.117 674.993L356.947 674.273L359.327 674.713L363.548 673.293ZM288.687 674.823L290.727 675.323L291.477 676.623L290.117 678.093L286.898 679.083L285.548 678.463L283.997 675.903L283.847 673.663L285.997 672.123L285.887 674.043L288.687 674.823ZM303.417 673.323L303.537 673.803L301.867 673.243L299.807 671.543L298.988 670.283L299.247 669.543L302.407 671.733L303.417 673.323ZM244.517 674.853L246.207 675.573L247.377 677.853L249.637 680.263L252.407 681.913L256.367 682.223L259.548 683.623L261.787 685.313L263.907 688.253L264.477 688.733L266.097 690.513L270.178 698.823L272.687 703.233L272.768 706.243L273.407 708.613L274.678 711.493L275.738 712.363L276.458 716.353L275.518 717.223L271.567 716.823L269.548 717.453L265.018 722.243L258.607 721.943L253.977 719.393L251.477 719.233L248.277 716.333L248.457 715.643L252.717 711.623L255.117 714.663L256.597 714.903L259.947 717.023L260.268 718.423L262.597 718.593L265.167 721.373L266.247 720.363L264.958 717.213L263.738 715.833L260.227 713.533L259.527 712.493L255.267 710.803L254.037 709.393L251.617 708.883L250.837 709.213L249.957 711.033L248.797 710.773L243.327 713.403L238.367 711.393L236.587 709.313L236.877 708.233L236.377 707.093L234.687 706.343L234.717 704.403L233.827 702.613L234.097 700.353L233.277 693.703L232.147 692.143L233.347 690.963L235.237 693.853L237.977 694.683L241.717 700.803L243.027 701.743L242.187 702.673L243.737 702.733L244.427 702.403L249.107 700.603L249.037 700.133L246.337 700.743L243.827 699.193L246.727 698.103L246.507 697.623L244.487 697.973L243.427 697.153L244.837 694.963L246.147 695.263L246.627 694.793L246.167 694.143L245.227 694.343L242.057 691.733L236.807 690.933L236.277 689.683L236.757 688.823L239.347 687.653L236.167 688.423L235.567 687.813L235.677 686.883L237.817 686.003L238.087 684.403L234.207 684.113L225.137 685.183L221.987 683.203L220.737 681.743L219.807 681.673L219.687 679.903L223.167 678.993L224.697 677.593L225.847 677.963L225.747 679.173L227.667 679.273L226.137 677.793L226.457 677.493L224.837 677.333L226.057 676.733L225.977 676.033L224.637 676.143L224.677 676.653L223.237 677.583L223.697 678.303L222.337 678.343L219.817 677.413L217.357 677.403L216.617 676.083L216.677 674.473L218.487 673.613L220.577 670.943L225.027 668.133L231.207 666.613L234.527 667.363L241.247 671.263L244.517 674.853ZM207.297 659.473L206.657 660.063L204.707 660.093L204.597 658.203L203.747 657.913L203.637 656.793L204.247 655.333L205.957 655.593L207.317 657.573L207.297 659.473ZM398.807 651.513L396.048 666.903L390.597 684.963L390.387 688.063L385.268 694.613L381.477 703.103L380.977 706.773L379.708 708.723L379.307 714.263L373.988 727.803L373.747 730.283L370.997 737.863L368.387 748.303L365.738 752.173L362.637 753.493L361.527 753.063L358.958 749.173L359.337 748.693L358.827 747.043L359.947 746.283L360.087 744.833L357.898 739.673L357.678 735.433L354.507 730.513L349.958 727.523L348.997 725.503L349.518 725.433L349.708 726.163L352.667 726.353L354.317 727.623L354.747 726.903L355.398 727.013L355.357 727.773L356.157 727.533L357.898 723.723L359.268 723.343L358.367 722.463L359.488 715.193L361.007 714.993L361.497 716.883L363.717 717.933L364.238 716.413L367.277 716.173L365.777 714.563L365.597 713.553L365.018 712.413L364.407 711.533L364.357 709.093L363.107 711.533L361.527 710.623L360.667 711.313L359.988 708.373L361.007 707.553L361.447 705.183L363.327 703.383L363.967 701.613L365.567 700.613L366.157 699.923L366.747 697.813L371.208 692.633L372.708 691.883L373.067 690.953L375.587 691.233L378.488 688.093L379.067 686.063L380.557 684.193L381.018 681.863L383.697 678.523L384.007 675.963L385.777 672.353L387.827 662.203L390.917 656.543L391.298 653.413L393.977 650.913L395.357 648.163L396.587 647.103L398.327 648.503L398.807 651.513ZM232.937 621.033L233.607 625.043L233.947 624.973L234.757 623.933L233.677 623.443L233.797 622.663L234.517 622.833L235.987 621.703L235.587 623.403L233.217 626.523L230.437 626.613L228.517 624.283L229.547 623.553L228.707 621.643L231.467 620.603L232.937 621.033ZM241.687 607.763L243.077 611.773L242.737 614.093L238.727 615.433L238.217 614.713L238.277 611.813L237.537 610.423L238.337 608.033L240.387 609.723L240.567 608.803L239.717 608.663L241.687 607.763ZM226.987 600.943L225.107 601.923L223.297 600.493L224.737 598.883L226.377 598.633L228.027 600.413L226.987 600.943ZM37.5575 575.753L38.3375 577.003L38.9475 574.973L41.2375 573.143L44.4575 573.363L46.4875 574.283L45.9475 581.493L46.6775 582.893L48.0375 583.953L49.7275 581.243L50.7175 580.823L52.7375 582.203L52.5975 583.433L54.3675 588.583L51.7675 591.363L51.9575 592.593L54.5075 595.583L55.3075 600.863L56.6575 600.673L55.0975 603.933L55.5275 604.813L52.2875 604.323L48.7875 601.603L41.7875 586.193L38.5475 582.083L35.7175 580.093L35.2775 575.923L39.4775 572.963L37.5575 575.753ZM332.247 573.883L329.747 574.713L329.537 573.763L329.648 572.113L330.747 570.863L332.178 570.463L331.057 572.253L332.247 573.883ZM225.287 571.833L223.507 571.463L223.217 570.013L221.697 567.803L222.227 565.563L223.997 566.203L225.647 568.973L227.167 569.243L227.337 570.863L225.287 571.833ZM351.257 547.063L350.777 547.113L350.507 545.623L350.907 544.603L351.257 547.063ZM351.488 541.753L351.787 544.013L352.807 544.133L352.057 544.493L352.257 545.703L350.988 543.513L351.488 541.753ZM348.887 538.573L349.687 538.993L351.717 538.713L352.037 536.733L350.687 536.983L350.347 538.033L350.197 537.383L349.488 537.623L349.928 537.003L352.067 536.513L352.958 537.703L359.567 548.913L361.018 552.563L364.187 556.243L363.857 558.973L365.337 563.113L366.407 564.823L368.898 566.903L370.277 570.153L370.048 571.333L368.617 572.013L366.917 572.183L365.247 571.603L359.798 574.453L358.697 576.383L358.727 577.683L356.958 578.623L356.018 577.583L354.327 577.263L354.148 578.283L354.617 578.553L353.377 578.813L351.687 578.043L350.667 576.293L347.087 574.893L346.997 575.773L343.307 576.863L343.877 578.043L343.428 579.053L341.837 578.913L341.967 579.963L345.768 584.523L346.407 584.613L347.337 583.193L346.217 577.733L347.997 576.083L350.488 577.303L350.507 578.363L353.107 579.253L355.087 580.743L356.357 579.613L357.437 579.733L357.777 578.613L358.947 577.843L359.067 578.633L361.847 581.043L363.738 584.113L365.357 585.843L367.018 586.323L369.347 590.423L372.238 592.953L373.887 596.833L376.137 599.963L379.988 611.783L382.898 614.303L384.627 614.283L384.567 614.753L383.327 614.993L384.488 616.323L384.268 617.013L380.837 617.963L380.428 617.693L380.847 617.123L381.407 617.413L381.648 617.003L380.738 616.193L381.007 615.323L379.928 614.613L379.417 615.463L379.227 614.663L378.377 614.523L378.057 613.653L376.958 613.003L376.477 613.373L375.428 612.843L375.807 614.763L375.187 614.213L374.307 615.103L371.577 614.703L370.087 615.483L374.657 615.433L375.747 616.443L376.238 617.513L375.648 620.893L379.467 631.033L378.627 633.773L379.067 637.033L378.298 643.243L376.167 647.353L376.067 649.393L375.137 651.483L375.337 653.383L374.447 654.993L374.417 657.743L373.347 660.323L373.967 662.423L372.537 662.603L371.357 663.653L370.587 668.033L369.548 670.293L366.768 671.333L364.247 673.173L364.428 672.153L362.067 671.533L361.337 672.873L359.077 672.743L358.527 673.303L357.648 672.863L355.527 673.593L354.708 672.453L352.947 672.523L351.747 671.833L351.577 673.893L350.507 674.193L349.407 675.443L339.988 679.103L338.137 680.463L334.337 679.343L333.157 677.403L331.827 676.663L330.107 677.193L325.117 676.823L324.148 677.343L320.117 675.053L320.467 673.833L318.447 671.143L317.597 671.433L317.898 672.593L315.747 674.653L314.567 674.463L314.488 673.913L312.627 674.263L310.988 673.833L310.807 671.763L307.887 670.823L307.597 669.663L306.067 668.553L305.958 667.543L304.607 666.493L302.637 666.173L300.678 664.503L299.727 664.463L298.857 663.673L299.238 663.233L298.307 662.503L295.567 664.193L297.577 665.553L298.428 668.193L297.738 669.323L296.387 669.813L296.178 670.993L294.678 670.853L294.697 671.613L296.687 671.413L295.247 672.553L294.167 671.763L293.917 670.043L292.337 667.853L288.907 667.653L284.777 665.133L277.048 668.593L276.357 666.063L277.937 663.073L278.197 661.223L278.967 660.683L279.708 661.353L281.077 661.213L282.837 658.873L284.497 658.233L285.437 658.473L285.947 657.563L286.877 657.853L286.867 657.073L288.497 657.493L290.887 655.933L289.247 654.973L286.597 649.843L285.907 650.223L285.337 649.703L285.127 646.743L283.277 644.353L282.298 641.143L281.497 641.023L280.567 642.723L279.738 642.343L278.527 644.363L273.337 644.093L269.347 643.053L269.178 639.683L265.887 638.133L265.247 638.843L266.367 640.493L267.087 640.963L266.117 642.543L265.217 641.953L264.777 644.513L266.077 643.533L265.597 645.063L266.387 646.883L268.407 648.253L272.827 654.683L271.488 656.983L270.148 657.843L267.367 657.173L263.768 654.883L263.577 654.283L265.027 652.853L265.497 651.333L264.217 646.533L265.077 638.173L264.687 636.913L263.648 635.273L262.007 634.103L256.777 633.973L255.857 631.633L254.017 629.753L250.397 627.533L249.967 628.123L248.277 626.043L249.187 625.593L249.837 626.403L251.377 626.633L250.547 627.313L251.757 627.863L251.937 627.653L252.757 626.063L252.327 625.003L250.837 624.213L250.287 622.573L250.847 622.663L251.487 621.863L251.967 612.993L251.177 609.453L249.807 606.573L249.947 604.793L251.157 605.473L252.187 605.853L252.747 604.743L250.307 603.843L249.337 601.973L249.517 600.563L247.697 602.023L244.647 602.173L237.267 598.953L237.677 596.173L241.737 595.793L243.467 595.123L244.657 593.863L244.737 592.173L242.397 589.443L241.187 588.373L237.517 587.413L238.897 586.283L241.367 587.193L242.507 586.833L242.967 585.683L242.687 584.383L237.947 582.233L235.387 582.443L231.347 581.573L230.877 580.923L231.747 578.933L228.737 575.593L227.617 573.343L228.387 572.143L229.197 573.923L232.937 577.053L234.187 577.443L234.607 578.843L236.957 580.413L240.927 582.153L242.617 581.543L241.847 580.143L240.047 579.343L239.667 577.783L238.577 578.003L236.667 576.743L236.687 576.093L235.937 576.073L236.417 574.963L237.337 575.833L238.657 575.933L237.747 574.343L236.857 574.533L235.977 573.233L233.367 573.833L231.067 572.333L229.357 567.583L225.517 567.173L224.937 565.683L222.717 564.153L222.257 562.003L223.167 561.263L224.917 561.423L228.457 563.833L231.607 564.253L232.997 563.033L234.907 558.363L233.107 555.383H236.857L240.027 553.113L243.897 552.463L245.827 553.483L246.337 554.753L245.957 559.713L248.217 562.523L255.257 563.593L258.458 562.963L266.387 556.503L270.048 554.593L271.787 551.953L276.977 550.803L277.988 549.573L278.617 549.123L281.417 547.723L283.917 547.093L285.877 547.043L288.087 545.393L291.497 544.093L293.607 544.233L293.907 543.793L292.928 542.283L294.057 542.503L294.747 543.543L295.898 541.393L299.067 540.323L306.467 539.163L307.447 539.783L305.917 539.493L305.507 540.263L306.367 542.763L305.518 543.483L305.877 543.923L305.988 544.503L305.587 545.483L307.287 545.953L307.988 545.233L310.307 545.243L310.607 544.313L308.898 542.743L308.967 539.223L307.268 536.423L309.988 535.943L324.347 544.123L329.217 549.063L341.407 558.193L344.557 561.873L343.488 562.483L341.298 560.463L339.398 556.953L335.407 554.133L334.777 554.713L335.617 556.343L334.437 556.613L335.657 558.053L333.678 557.423L332.917 558.463L332.117 558.203L332.007 559.393L333.827 560.843L333.877 562.993L334.817 564.473L336.048 564.833L336.617 566.033L335.077 567.053L333.917 566.483L333.148 567.803L334.307 568.403L334.587 569.593L330.217 568.533L329.708 569.043L329.768 571.063L328.268 570.753L327.557 573.213L328.217 573.963L327.337 574.393L326.907 576.733L327.157 577.503L325.648 580.763L325.917 581.273L326.747 580.623L328.247 581.213L330.097 579.513L332.317 580.873L333.548 579.373L334.787 578.863L335.787 577.293L334.937 575.513L334.217 575.873L334.458 576.563L333.287 576.233L333.497 575.103L334.117 575.793L334.798 575.333L333.648 572.393L339.197 574.263L340.268 573.693L341.507 571.653L343.298 572.863L344.137 572.753L344.157 571.883L346.287 571.443L347.117 570.103L349.567 569.673L351.458 571.103L353.197 569.003L353.537 568.133L352.577 566.803L352.617 564.803L348.648 562.593L345.807 561.853L345.277 561.053L345.387 559.973L346.817 558.543L348.268 558.053L349.327 558.433L350.268 560.623L351.898 561.703L352.898 562.003L353.827 561.103L353.958 560.173L352.398 558.473L352.727 554.753L350.667 551.523L350.537 548.753L349.357 545.333L350.398 542.843L350.708 543.493L350.287 543.683L349.548 545.223L351.327 548.983L353.577 551.783L354.347 550.303L354.117 549.683L354.777 549.393L352.997 547.933L353.057 547.453L354.327 547.573L353.798 543.973L352.738 542.613L352.107 539.443L351.217 539.353L350.827 540.253L348.227 538.253L348.587 536.433L349.657 538.213L348.887 538.573ZM290.027 529.863L292.847 530.733L293.107 532.193L291.738 533.873L291.757 537.503L292.557 539.033L291.857 540.053L291.238 538.983L291.527 534.323L289.507 531.933L288.997 529.823L290.027 529.863ZM170.217 458.573L171.497 458.723L172.027 459.893L173.427 459.523L174.287 460.403L174.787 459.723L175.297 459.183L176.667 459.163L175.967 458.783L175.957 458.713L176.627 458.383L178.667 460.173L181.637 461.383L182.087 462.733L181.677 462.973L191.877 477.073L189.107 479.063L191.247 479.993L190.107 483.763L195.097 484.253L195.037 485.573L197.917 485.643L198.387 489.763L200.197 495.793L203.057 496.303L202.837 498.843L208.397 498.483L209.257 496.863L210.777 498.923L209.137 501.103L211.527 504.063L214.627 502.523L217.857 503.613L218.427 502.213L222.517 504.693L222.937 508.023L221.207 513.843L211.687 515.643L211.057 515.023L208.427 515.763L206.637 515.343L206.347 514.563L205.437 514.233L205.067 515.353L205.617 515.853L205.207 517.063L209.577 519.283L217.517 518.263L218.917 519.313L220.577 518.113L223.147 521.043L223.487 522.763L225.707 525.383L226.797 525.043L230.327 527.003L231.537 533.243L232.187 534.853L233.317 535.703L238.757 534.993L239.867 534.373L247.217 535.183L245.517 537.293L238.247 542.613L237.557 545.583L234.757 548.953L234.487 552.063L232.787 551.283L231.177 551.633L230.207 551.283L229.717 551.673L229.037 553.113L229.217 555.263L230.927 559.863L230.697 561.183L228.387 561.303L224.337 559.543L221.397 558.983L216.827 563.523L214.927 562.403L213.747 563.183L212.397 563.193L211.977 560.913L211.427 561.153L206.947 559.033L206.287 559.873L207.267 561.483L207.947 561.703L208.817 561.003L209.757 561.163V561.623L208.127 563.023L205.997 561.613L205.377 562.123L208.607 563.363L209.037 566.463L207.607 565.953L203.197 566.623L200.497 566.313L199.477 565.513L194.997 568.203L196.907 568.323L199.407 569.763L201.287 568.803L207.047 567.553L208.057 568.913L209.427 569.233L211.747 566.523L212.717 566.953L214.837 566.063L224.207 575.253L223.357 576.963L218.687 581.213L215.867 582.683L213.027 582.803L211.077 583.703L210.287 585.543L213.107 591.113L214.277 592.143L214.327 593.363L213.397 596.873L211.517 599.613L211.177 598.333L210.007 597.183L207.577 596.353L206.287 596.903L207.007 597.113L207.847 599.283L208.907 599.703L209.997 599.373L210.307 599.863L210.977 599.473L211.387 600.563L214.627 600.693L217.777 604.233L218.217 607.773L215.727 611.373L217.177 611.293L221.237 617.943L220.487 617.373L218.367 617.723L216.867 616.673L215.207 616.923L212.817 620.673L209.057 621.653L208.907 624.433L207.387 624.583L206.407 626.203L206.277 626.913L206.897 627.123L207.287 625.953L209.827 624.693L209.347 623.043L209.827 622.033L212.867 621.373L215.177 618.133L216.207 617.933L217.657 619.083L219.287 618.433L222.897 621.513L226.837 623.543L227.737 626.293L226.797 628.173L227.307 629.503L224.807 632.093L223.907 633.873L224.597 638.573L224.237 639.863L215.367 644.843L214.207 643.213L214.907 641.223L215.627 642.303L215.197 642.453L215.327 644.493L216.347 644.513L216.597 643.983L215.347 641.173L209.867 640.223L205.977 644.023L204.047 644.773L201.007 647.403L197.267 649.063L196.987 650.053L197.757 650.843L198.167 654.213L200.227 655.703L200.117 656.243L197.287 656.313L193.897 655.203L192.477 656.843L192.677 657.533L193.207 657.353L193.097 658.793L192.277 658.753L192.357 657.923L191.567 659.353L192.797 659.443L194.437 658.313L194.987 659.233L196.237 658.093L197.087 658.223L198.437 660.153L200.227 660.503L202.107 662.783L202.907 664.763L204.527 665.313L204.467 668.743L197.537 676.003L196.887 675.423L192.827 675.273L191.997 676.303L189.457 677.103L187.607 676.603L187.297 675.623L187.457 676.643L186.837 676.833L187.467 676.913L186.857 677.183L187.407 677.153L187.567 677.873L186.767 677.723L187.117 678.443L186.627 678.813L187.117 680.903L188.387 681.683L188.527 680.963L189.337 680.803L191.077 682.983L194.787 682.613L196.407 683.343L198.357 682.903L200.057 681.013L204.087 679.303L207.617 678.623L207.707 676.713L208.877 676.313L212.217 678.363L213.777 682.283L215.487 684.433L218.687 685.463L222.797 688.153L224.247 689.813L227.027 689.253L230.387 689.923L230.607 693.133L232.337 695.063L232.017 696.763L232.737 704.003L233.987 704.803L234.477 707.133L236.547 708.313L235.927 710.133L232.977 711.653L226.547 710.123L225.377 711.953L225.597 713.223L226.757 713.843L228.627 713.593L230.697 715.453L231.067 718.273L233.257 720.153L233.647 722.863L232.447 725.293L228.917 726.553L228.147 725.133L225.797 723.763L226.047 722.403L222.447 721.253L219.347 721.753L216.687 720.373L216.347 718.953L218.317 717.563L219.177 715.543L217.957 715.363L217.147 714.543L216.407 712.523L214.387 712.053L212.607 710.073L211.137 709.573L212.177 708.463L216.517 707.243L218.067 707.363L219.077 708.953L220.917 708.713L221.657 707.823L221.087 706.393L218.807 704.593L216.767 703.233L214.327 702.673L213.417 703.913L212.927 707.263L212.397 707.553L211.737 706.373L210.617 706.663L209.837 707.633L210.997 707.603L211.597 708.723L207.777 710.843L208.457 711.523L208.257 713.433L206.667 715.973L205.377 716.743L202.867 715.443L202.497 716.633L200.817 716.573L200.247 717.753L198.807 717.893L197.257 720.433L196.267 720.963L195.357 723.263L193.347 723.993L192.177 725.433L190.167 725.663L187.987 727.123L186.037 727.113L186.047 725.713L184.757 724.643L183.907 725.133L181.187 725.433L180.627 726.913L179.977 729.753L177.527 731.173L176.137 733.233L175.757 734.773L173.787 733.493L168.827 732.703L169.017 734.433L167.837 733.813L167.537 732.533L165.637 731.933L162.817 732.533L160.847 727.363L160.787 726.363L162.097 724.333L161.457 722.863L156.587 720.693L155.137 720.643L149.397 717.773L143.487 717.103L140.767 718.013L134.827 717.583L130.207 714.103L126.007 712.753L121.057 710.273L116.217 710.393L113.297 709.703L108.777 711.663L107.267 711.523L105.147 709.253L103.887 709.243L103.107 709.933L102.117 709.453L100.407 709.753L100.417 710.243L97.2975 711.993L97.3575 712.633L94.3075 711.623L90.5575 712.613L84.0775 708.383L82.3475 708.163L81.1375 708.783L77.7775 708.103L80.8675 695.693L81.0275 690.113L77.2475 677.213L79.2575 665.273L79.7675 665.343L81.0575 662.943L83.0575 656.393L84.2575 655.363L83.6475 654.143L84.7875 652.093L82.9375 651.233L80.0575 651.053L74.0475 651.933L66.8175 650.763L66.0175 652.613L66.6675 656.653L67.2475 657.353L66.0875 662.443L68.6575 666.353L67.8875 666.443L66.9875 668.023L65.5775 668.823L62.5075 668.483L63.5875 669.283L62.9475 669.873L64.1375 671.223L62.6875 671.913L61.7275 672.223L59.8275 672.803L58.8075 671.943L54.4875 664.903L54.0575 665.103L53.7775 663.063L53.9975 662.623L55.4475 662.753L55.6175 662.273L54.0575 662.253L55.7575 652.263L56.1875 643.933L57.2375 642.133L58.6475 643.053L59.0275 642.653L58.9875 642.053L57.3375 641.433L58.1975 638.213L59.6775 636.763L59.9775 637.123L62.5975 636.283L61.9675 638.223L66.2575 638.143L69.2575 638.853L69.7175 639.423L71.7075 640.963L71.9375 641.753L70.9675 643.553L69.0675 645.343L68.6275 647.223L69.2875 647.783L68.4375 649.823L77.1175 651.183L81.8175 650.483L81.7375 649.853L82.7675 648.883L83.8075 648.783L84.2975 649.663L85.0475 649.683L84.7475 649.073L85.4575 648.393L84.6275 647.643L81.9975 633.233L81.5075 634.573L80.6275 634.303L80.6475 632.723L81.5175 632.683L81.1475 630.913L81.9475 629.923L80.8775 629.383L80.7275 628.123L81.4475 627.183L80.9275 626.513L81.9075 625.523L80.6375 625.193L80.4075 624.183L81.6575 623.743L81.3975 622.893L80.3275 623.113L80.0575 622.223L79.2275 622.243L78.8875 621.653L79.7375 621.003L79.9675 619.453L80.4675 620.173L81.1775 619.983L80.3575 615.853L81.0875 613.113L78.9075 612.383L74.7975 614.763L73.7975 616.043L71.0975 617.083L68.7775 622.233L67.0675 622.913L65.2475 622.753L63.5275 620.913L63.5775 618.813L65.6975 616.013L67.6375 615.353L71.7275 615.953L78.8475 611.663L81.2475 612.413L82.5975 608.743L82.7375 606.533L81.9275 605.473L82.0775 604.343L80.8475 602.583L76.1475 583.843L73.6175 582.483L71.0475 580.113L68.0275 578.813L66.3775 576.893L65.1275 576.503L61.8975 577.633L55.3275 576.033L54.5075 577.723L51.0475 576.203L52.1875 576.113L52.0075 575.473L50.4175 575.033L50.2175 575.953L49.5775 575.413L50.3375 574.023L49.3775 572.703L48.1575 570.853L47.6075 569.913L33.7975 554.493L30.5175 549.523L30.9875 547.683L33.5575 546.413L33.6075 545.493L32.6375 544.093L30.0575 542.663L27.0975 542.413L24.3175 546.043L23.8875 547.863L22.7075 549.503L22.7375 552.373L23.4775 554.553L24.8575 556.523L27.3075 557.543L25.9675 559.943L27.1875 561.903L29.3475 563.243L32.2975 566.683L32.3675 570.373L30.6075 571.423L16.4775 559.173L0.257492 551.513L0.327492 550.013L2.99749 543.443L12.0075 513.883L14.2475 498.983L13.4975 488.463L16.0975 487.983L15.7175 486.753L14.6775 486.063L14.7375 484.743L16.0475 484.443L20.9275 485.753L20.8075 487.863L23.6875 489.433L27.3575 492.973L28.4275 492.913L29.1475 491.913L34.3675 492.033L38.3775 486.793L42.4175 491.893L48.5175 492.503L47.2775 493.383L50.8175 495.203L52.0175 498.063L58.2875 497.983L60.9475 495.333L60.7875 489.753L64.1175 489.073L65.4275 486.793L63.4875 482.163L68.6975 480.563L71.8975 483.713L83.4075 480.413L87.8075 483.003L89.7975 488.883L94.8475 490.793L104.237 487.523L99.7675 483.003L103.737 480.623L106.017 472.183L108.227 472.563L109.547 468.833L111.487 469.233L111.817 468.753L123.447 471.423L122.377 481.113L129.497 484.773L132.357 482.333L134.597 483.353L136.327 479.843L137.997 481.373L139.937 475.843L141.657 473.313L144.457 475.263L148.937 471.753L155.267 463.573L155.187 460.133L158.537 454.223L163.767 454.523L167.027 458.273L170.217 458.573ZM219.267 634.913L218.717 635.003L219.177 636.023L222.727 635.403L222.217 634.363L222.147 633.873L221.077 631.993L219.317 633.053L219.267 634.913Z" fill="#002E5D" stroke="white" stroke-width="0.5"/>
</svg>
