<svg width="457" height="398" viewBox="0 0 457 398" fill="none" xmlns="http://www.w3.org/2000/svg">
<g clip-path="url(#clip0_705_2310)">
<path d="M304.634 25.8674C293.04 29.0978 283.048 37.9243 284.392 50.6826C284.745 54.0338 286.031 57.1481 287.514 60.2517C288.275 61.8502 289.241 63.3874 290.09 64.9416C295.424 61.8853 297.434 61.569 300.589 59.6802C299.221 54.6114 296.705 49.3302 300.321 44.5548C303.464 40.545 310.552 39.3623 314.608 42.6523C319.29 46.4497 318.294 54.3257 314.634 58.4531C314.283 58.8474 310.72 61.8165 310.749 61.8624C310.749 61.8624 315.848 72.7488 316.883 76.4254C320.377 75.2747 324.33 72.246 326.03 71.4896C325.754 68.9407 322.892 63.0818 322.892 63.0818C322.892 63.0818 325.742 60.6108 326.335 59.6558C327.557 57.8969 328.393 55.9012 329.231 53.907C330.29 51.0142 329.779 46.2021 329.375 43.2085C327.755 31.2418 316.772 22.4856 304.634 25.8674Z" fill="#F24E1E"/>
<path d="M327.782 84.0768C324.534 84.5383 320.996 86.6578 320.346 90.0976C320.035 91.7388 320.224 93.2868 320.761 94.6285C322.494 98.9256 327.853 101.132 332.233 97.6343C334.864 95.5332 336.871 91.4729 335.29 88.2822C333.88 85.4338 331.031 83.6138 327.782 84.0768Z" fill="#F24E1E"/>
<path d="M371.289 4.75011C359.26 4.25805 347.028 9.58204 344.365 22.1325C343.666 25.4287 343.93 28.7875 344.38 32.1953C344.611 33.948 345.056 35.7084 345.38 37.449C351.402 36.1821 353.412 36.4985 356.996 35.6733C357.264 30.4303 356.498 24.631 361.413 21.2019C365.643 18.3535 372.75 19.4094 375.594 23.786C378.875 28.838 375.496 36.0263 370.736 38.8243C370.279 39.0917 365.976 40.82 365.988 40.8735C365.988 40.8735 367.477 52.799 367.323 56.6147C371.002 56.5933 375.7 54.9277 377.55 54.7305C378.075 52.2214 377.161 45.7665 377.161 45.7665C377.161 45.7665 380.638 44.2934 381.497 43.5676C383.2 42.2702 384.612 40.629 386.026 38.9893C387.926 36.5642 388.93 31.827 389.467 28.8548C391.624 16.9736 383.883 5.26509 371.289 4.75011Z" fill="#F24E1E"/>
<path d="M375.328 67.2443C372.094 66.6835 368.075 67.6126 366.393 70.6857C365.592 72.1511 365.289 73.6808 365.39 75.1233C365.707 79.7413 370.127 83.4913 375.373 81.5109C378.525 80.3205 381.689 77.0763 381.171 73.5539C380.707 70.4106 378.559 67.8036 375.328 67.2443Z" fill="#F24E1E"/>
<path d="M434.157 0.691499C422.347 -1.64195 409.441 1.74132 404.875 13.7325C403.674 16.882 403.417 20.2408 403.336 23.6776C403.294 25.4456 403.461 27.2534 403.515 29.023C409.66 28.6959 411.594 29.3179 415.265 29.052C416.336 23.9129 416.475 18.0663 421.86 15.4303C426.481 13.2665 433.341 15.3997 435.475 20.1614C437.937 25.6565 433.491 32.2397 428.357 34.2751C427.864 34.4692 423.344 35.516 423.347 35.571C423.347 35.571 422.98 47.5821 422.237 51.3306C425.878 51.8746 430.776 50.95 432.634 51.0402C433.54 48.641 433.634 42.1236 433.634 42.1236C433.634 42.1236 437.296 41.2006 438.256 40.6153C440.14 39.5945 441.789 38.1902 443.437 36.7858C445.69 34.6816 447.41 30.1568 448.401 27.3008C452.365 15.8933 446.522 3.13497 434.157 0.691499Z" fill="#F24E1E"/>
<path d="M428.509 63.062C425.398 62.0107 421.283 62.3117 419.149 65.0899C418.131 66.4147 417.596 67.8802 417.472 69.3228C417.073 73.9347 420.862 78.3158 426.349 77.1666C429.648 76.4744 433.274 73.7543 433.307 70.1938C433.335 67.0168 431.615 64.1103 428.509 63.062Z" fill="#F24E1E"/>
<path d="M85.019 341.522C79.1805 347.695 71.1626 351.768 59.0095 360.9L58.4902 360.743C70.8272 365.018 77.0409 367.949 77.0409 367.949C83.9729 363.799 98.86 353.044 104.021 347.231L85.019 341.522Z" fill="#F3D5C5"/>
<path d="M225.498 237.47C204.255 252.458 93.6891 326.234 70.8193 343.123C80.6568 357.642 91.5311 362.74 92.9233 362.479C102.41 360.692 159.586 326.727 175.171 318.077C188.827 311.335 201.942 304.515 215.515 298.308C226.777 292.854 240.189 287.723 250.753 283.262L225.498 237.47Z" fill="#2B4C60"/>
<path d="M88.1201 355.889C88.1201 355.889 90.6794 354.424 95.1593 351.858C99.6515 349.317 106.07 345.686 113.77 341.328C121.494 337.012 130.505 331.977 140.159 326.584C149.84 321.236 160.166 315.532 170.492 309.827C180.852 304.182 191.21 298.539 200.922 293.247C210.66 288.002 219.748 283.108 227.538 278.912C235.352 274.758 241.863 271.297 246.42 268.873C250.99 266.474 253.601 265.103 253.601 265.103C253.601 265.103 251.042 266.57 246.562 269.135C242.07 271.676 235.652 275.308 227.952 279.665C220.228 283.98 211.216 289.016 201.561 294.41C191.879 299.757 181.553 305.461 171.227 311.166C160.868 316.809 150.508 322.454 140.796 327.746C131.058 332.99 121.971 337.885 114.18 342.081C106.368 346.235 99.8567 349.696 95.2987 352.119C90.7315 354.517 88.1201 355.889 88.1201 355.889Z" fill="#1F3641"/>
<path d="M76.808 342.929C81.726 351.294 90.4546 355.788 98.8737 359.963C99.2934 360.171 100.627 360.044 99.7375 359.602C91.5634 355.551 83.0646 351.196 78.2876 343.071C78.0517 342.668 76.6258 342.617 76.808 342.929Z" fill="#1F3641"/>
<path d="M1.2281 333.857C-2.87044 340.338 3.3708 351.447 18.7342 367.425C23.5036 372.385 46.1406 390.709 53.8705 391.987C54.7558 392.107 56.0867 391.727 57.6995 390.995C46.476 384.607 33.7147 374.934 25.1807 366.1C17.6253 358.735 3.67406 345.684 1.2281 333.857Z" fill="#CDCDCD"/>
<path d="M23.2054 341.671C19.2278 338.08 8.58323 328.667 5.54608 330.195C3.57645 331.184 2.14594 332.405 1.22852 333.857C2.5365 340.185 7.142 346.853 12.2927 352.821C16.5659 349.815 20.7211 345.495 23.2054 341.671Z" fill="#EFF9FF"/>
<path d="M82.0663 372.576C82.9991 371.786 83.9288 371.007 84.8539 370.255C75.5402 363.663 72.1462 361.951 63.1925 351.824C62.3027 352.984 61.4266 353.941 60.5674 354.778C65.3184 361.971 73.8968 368.253 82.0663 372.576Z" fill="#EFF9FF"/>
<path d="M48.3027 385.121C51.4716 387.266 54.642 389.253 57.6991 390.995C60.6795 389.473 63.5513 387.585 66.3556 385.533C61.1099 383.475 53.6893 383.67 48.3027 385.121Z" fill="#EFF9FF"/>
<path d="M60.5673 354.778C53.5388 361.62 47.7877 358.606 47.7877 358.606C47.7877 358.606 29.1788 346.931 24.5518 342.882C24.3129 342.674 23.8351 342.237 23.2056 341.671C20.7213 345.495 16.5661 349.815 12.293 352.821C16.7744 358.01 21.6663 362.673 25.1813 366.099C31.3904 372.527 39.8387 379.393 48.3038 385.119C53.6904 383.67 61.111 383.475 66.3567 385.53C71.8337 381.527 77.0212 376.843 82.0663 372.575C73.8967 368.253 65.3183 361.971 60.5673 354.778Z" fill="#830E15"/>
<path d="M27.1377 355.646C28.8454 353.455 30.7369 351.522 32.4064 349.55" stroke="#EFF9FF" stroke-width="1.52813" stroke-miterlimit="10" stroke-linecap="round" stroke-linejoin="round"/>
<path d="M34.2295 360.391C35.5022 359.476 37.2467 357.069 38.4444 355.246" stroke="#EFF9FF" stroke-width="1.52813" stroke-miterlimit="10" stroke-linecap="round" stroke-linejoin="round"/>
<path d="M42.1963 365.279C43.0678 364.075 44.8459 361.448 46.0084 359.842" stroke="#EFF9FF" stroke-width="1.52813" stroke-miterlimit="10" stroke-linecap="round" stroke-linejoin="round"/>
<path d="M54.6934 360.362C54.7393 362.836 55.4392 365.419 55.96 367.748" stroke="#EFF9FF" stroke-width="1.52813" stroke-miterlimit="10" stroke-linecap="round" stroke-linejoin="round"/>
<path d="M330.686 207.537C314.217 205.121 319.701 252.565 340.629 245.089C350.661 241.59 346.748 232.481 343.386 225.998C340.943 220.36 337.842 209.453 331.548 207.06L330.686 207.537Z" fill="#C69F3A"/>
<path d="M358.99 207.375C330.274 202.919 331.178 176.4 330.677 164.173C329.556 169.184 323.46 182.344 319.727 172.234C315.995 162.124 323.281 145.607 329.606 138.067C317.595 139.219 318.681 130.568 325.143 126.332C333.208 120.706 348.35 117.77 357.622 117.391C365.073 108.194 363.908 108.86 369.749 105.643C381.429 99.2082 392.61 96.7648 405.831 95.5621C409.143 95.4277 420.045 94.3198 419.92 99.2908C419.75 103.27 408.707 109.017 405.818 111.452C413.326 108.498 422.548 110.397 429.786 113.452C437.697 116.789 460.133 124.98 455.99 137.541C454.471 140.914 446.798 139.904 443.471 139.707C454.877 150.827 446.32 168.72 435.689 176.437C427.639 182.393 418.278 188.734 408.822 192.76C398.398 197.49 387.379 203.899 375.813 205.033L358.99 207.375Z" fill="#372314"/>
<path d="M320.86 218.862C328.737 214.006 349.748 205.838 350.647 205.037C351.187 204.557 351.416 203.85 351.117 202.621C351.117 202.621 348.011 198.555 345.266 196.35C340.826 193.222 337.343 181.116 341.499 177.305C347.23 171.444 353.598 181.114 355.433 185.343C357.426 177.317 354.105 169.177 354.098 160.9C370.95 159.219 374.815 140.193 376.921 126.866C386.69 130.439 392.133 141.802 403.712 141C412.309 140.316 412.938 131.354 405.156 127.699C415.56 130.585 431.095 137.233 432.616 150.08C434.083 161.605 432.599 173.914 433.734 185.453C434.981 199.635 437.641 211.776 427.188 223.789C416.426 236.477 397.043 235.612 383.882 230.192C377.825 228.121 366.569 221.594 361.359 216.546C361.359 216.546 339.221 234.993 327.365 237.132L320.86 218.862Z" fill="#F3D5C5"/>
<path d="M343.36 182.193C343.36 182.193 343.679 182.143 344.232 182.092C344.504 182.05 344.848 182.082 345.26 182.141C345.685 182.173 346.13 182.291 346.6 182.461C347.097 182.591 347.562 182.863 348.078 183.13C348.554 183.437 349.087 183.755 349.546 184.169C350.024 184.569 350.485 185.013 350.903 185.503C351.351 185.974 351.709 186.515 352.097 187.036C353.549 189.187 354.445 191.599 354.844 193.454C355.272 195.308 355.23 196.603 355.23 196.603C355.23 196.603 355.045 196.336 354.76 195.865C354.472 195.395 354.072 194.728 353.614 193.932C353.155 193.15 352.619 192.238 352.045 191.26C351.472 190.295 350.845 189.293 350.196 188.319C349.856 187.849 349.539 187.352 349.183 186.914C348.843 186.455 348.491 186.029 348.134 185.627C347.784 185.217 347.416 184.86 347.07 184.508C346.689 184.216 346.365 183.85 346.002 183.628C345.649 183.376 345.327 183.132 345.018 182.98C344.713 182.812 344.437 182.623 344.166 182.542C343.651 182.332 343.36 182.193 343.36 182.193Z" fill="#CE9282"/>
<path d="M416.412 191.79C416.716 192.378 417.019 192.967 417.296 193.563C417.538 194.18 417.756 194.817 417.978 195.459C418.347 196.741 418.649 198.048 418.845 199.366C419.036 200.682 419.186 201.999 419.269 203.314C419.371 204.623 419.439 205.927 419.496 207.223L419.499 207.284C419.515 207.687 419.295 208.045 418.961 208.225C418.211 208.628 417.472 209.073 416.702 209.438C415.91 209.741 415.126 210.063 414.329 210.343C413.522 210.575 412.709 210.798 411.893 210.986C411.067 211.124 410.246 211.275 409.424 211.396L406.936 211.567C406.108 211.569 405.278 211.532 404.455 211.514C403.631 211.446 402.812 211.329 401.999 211.232C401.188 211.078 400.387 210.885 399.599 210.685C400.421 210.616 401.23 210.584 402.032 210.539L404.426 210.306L406.788 209.97L409.113 209.521L411.393 208.954C412.136 208.715 412.87 208.459 413.614 208.242C414.336 207.967 415.039 207.655 415.752 207.366L417.78 206.315L417.246 207.316C417.155 204.68 417.229 202.088 417.175 199.515C417.145 198.874 417.123 198.233 417.109 197.586L416.973 195.661L416.748 193.744C416.624 193.095 416.515 192.444 416.412 191.79Z" fill="#CE9282"/>
<path d="M402.067 181.782C402.067 181.782 402.689 182.239 403.797 182.973C404.904 183.709 406.504 184.73 408.471 185.832C409.453 186.386 410.545 186.927 411.696 187.478C412.856 188.011 414.101 188.511 415.401 188.912C416.694 189.345 418.071 189.576 419.407 189.62C420.08 189.661 420.728 189.56 421.356 189.434L422.182 189.175C422.485 189.003 422.929 188.818 423.119 188.653C424.154 188.012 424.689 187.137 424.498 186.015C424.3 184.871 423.629 183.624 422.865 182.517C421.306 180.282 419.48 178.333 417.991 176.609C416.477 174.901 415.239 173.417 414.498 172.28C414.11 171.726 413.882 171.234 413.729 170.908C413.606 170.569 413.541 170.388 413.541 170.388C413.541 170.388 413.904 171.07 414.853 171.993C415.772 172.939 417.219 174.16 418.926 175.68C419.783 176.438 420.713 177.267 421.655 178.2C422.6 179.132 423.595 180.135 424.499 181.327C425.377 182.525 426.343 183.834 426.688 185.659C426.847 186.562 426.757 187.641 426.274 188.547C425.786 189.452 425.11 190.129 424.286 190.621C423.86 190.908 423.58 190.994 423.222 191.189C422.655 191.412 422.333 191.477 421.877 191.619C421.024 191.787 420.16 191.886 419.338 191.827C417.68 191.759 416.138 191.344 414.747 190.815C413.335 190.317 412.072 189.649 410.905 188.987C409.741 188.321 408.69 187.623 407.757 186.93C405.88 185.566 404.461 184.262 403.504 183.318C403.022 182.847 402.669 182.456 402.432 182.187C402.196 181.924 402.067 181.782 402.067 181.782Z" fill="#CE9282"/>
<path d="M379.581 151.253C380.399 146.916 385.536 142.735 390.849 142.848L379.581 151.253Z" fill="#372314"/>
<path d="M416.089 143.472C420.327 141.644 425.496 146.398 426.337 150.666L416.089 143.472Z" fill="#372314"/>
<path d="M387.134 165.106C387.072 165.094 387.009 165.084 386.944 165.078C383.909 164.722 380.326 167.928 381.72 171.027C383.01 173.897 386.713 173.691 388.804 171.843C390.761 170.113 389.897 165.596 387.134 165.106Z" fill="#272525"/>
<path d="M421.912 165.321C419.561 166.664 418.42 170.365 420.914 172.075C424.104 174.267 427.72 170.68 426.576 167.283C425.979 165.509 423.687 164.352 421.984 165.281C421.958 165.295 421.935 165.307 421.912 165.321Z" fill="#272525"/>
<path d="M282.979 176.825C298.543 178.836 321.987 178.762 328.893 196.134C330.36 199.606 334.122 208.39 334.122 208.39C333.397 212.39 327.885 214.713 328.046 218.679C328.352 226.17 338.026 235.485 345.37 231.212C348.678 236.373 356.824 240.896 357.556 247.929C358.745 255.383 349.725 261.931 344.147 266.132C334.261 273.156 324.393 280.62 313.586 286.801C307.973 290.117 302.431 295.2 296.32 297.214L282.979 176.825Z" fill="#14B411"/>
<path d="M218.313 260.124C243.595 237.261 268.646 213.691 294.793 191.411C290.024 173.037 285.642 156.262 282.06 142.854C266.483 154.335 251.602 166.913 236.971 179.517C230.111 185.414 223.021 191.314 216.157 197.442C207.739 227.03 198.332 260.025 190.221 288.901C199.484 279.302 208.482 269.299 218.313 260.124Z" fill="#F8F8FA"/>
<path d="M282.058 142.853C278.918 131.111 276.388 121.944 274.746 116.56C263.274 115.605 239.368 114.17 239.368 114.17C237.567 122.063 227.807 156.485 216.153 197.442C223.018 191.313 230.109 185.414 236.968 179.517C251.602 166.912 266.481 154.335 282.058 142.853Z" fill="#00C6CF"/>
<path d="M323.455 301.505C297.945 322.172 266.826 347.565 242.872 366.8L342.596 369.845C338.779 358.475 331.697 332.643 323.455 301.505Z" fill="#00C6CF"/>
<path d="M309.676 248.836C260.571 282.703 214.905 323.372 172.166 364.639L242.871 366.8C266.826 347.564 297.944 322.172 323.454 301.505C319.083 284.987 314.388 266.978 309.676 248.836Z" fill="#F8F8FA"/>
<path d="M294.793 191.411C268.647 213.691 243.595 237.259 218.313 260.124C208.482 269.299 199.484 279.302 190.218 288.902C179.4 327.409 170.886 358.591 170.091 364.577L172.166 364.641C214.905 323.374 260.57 282.704 309.676 248.838C304.597 229.275 299.506 209.566 294.793 191.411Z" fill="#00C6CF"/>
<path d="M127.006 397.5C127.006 397.5 122.634 360.681 124.82 359.295C127.006 357.909 378.741 350.279 378.741 350.279V395.115L128.439 397.5" fill="#C3FFF2"/>
<path d="M324.703 279.293C325.809 279.073 326.915 280.397 327.797 281.72C330.448 286.35 327.797 288.775 323.599 289.877C321.611 290.539 314.98 292.522 313.432 290.539C310.779 286.79 320.725 282.16 322.713 281.058L324.703 279.293Z" fill="#F3D5C5"/>
<path d="M324.858 279.616C327.12 279.756 328.236 283.977 328.033 285.715C327.765 288.008 324.965 289.04 323.099 289.576C321.022 290.175 313.011 292.912 313.835 288.664C314.372 285.892 318.63 283.875 320.8 282.666C322.577 281.677 323.893 280.844 325.42 279.489C325.706 279.235 324.334 278.786 323.986 279.093C321.079 281.674 317.425 283.034 314.44 285.545C311.724 287.828 311.456 291.201 315.486 291.676C318.935 292.084 324.686 290.809 327.523 288.734C331.286 285.982 329.167 279.254 324.55 278.966C323.505 278.905 324.205 279.576 324.858 279.616Z" fill="#CE9282"/>
<path d="M325.145 270.695C335.09 277.53 320.504 285.247 314.537 285.689C309.676 285.909 303.487 284.144 307.907 278.412C310.779 274.442 317.851 273.781 322.051 271.796L325.145 270.695Z" fill="#F3D5C5"/>
<path d="M324.566 270.765C334.448 278.074 318.061 286.003 311.281 285.209C306.221 284.616 306.628 281.093 309.115 278.048C310.751 276.046 313.606 275.167 315.971 274.385C319.251 273.297 322.491 272.174 325.745 271.014C326.274 270.826 324.929 270.241 324.546 270.377C319.44 272.195 313.473 273.375 308.968 276.414C306.97 277.762 304.933 280.687 306.011 283.12C306.721 284.723 309.223 285.485 310.763 285.751C315.86 286.631 320.529 285.018 324.78 282.206C329.697 278.956 330.669 274.283 325.724 270.626C325.415 270.395 323.926 270.29 324.566 270.765Z" fill="#CE9282"/>
<path d="M320.725 262.314C322.492 262.976 324.702 266.285 324.923 268.708C325.587 275.545 317.629 275.765 312.768 276.647C309.231 277.088 302.16 277.97 304.589 273.118C307.021 268.046 314.978 264.96 319.619 262.755L320.725 262.314Z" fill="#F3D5C5"/>
<path d="M320.169 262.49C324.557 264.851 325.798 271.485 321.301 274.223C318.171 276.129 313.279 276.352 309.675 276.642C300.704 277.37 307.172 270.209 310.589 267.889C313.819 265.695 317.628 264.015 321.249 262.571C322.001 262.272 320.567 261.914 320.201 262.059C314.982 264.142 309.315 266.601 305.391 270.725C301.76 274.543 303.792 277.4 308.459 277.318C313.046 277.237 318.448 276.68 322.597 274.63C327.899 272.009 325.631 264.481 321.281 262.14C320.938 261.955 319.462 262.108 320.169 262.49Z" fill="#CE9282"/>
<path d="M321.233 257.195C318.077 254.519 311.811 256.289 308.964 258.619C307.219 260.046 304.919 263.674 305.381 266.109C306.523 272.143 324.134 267.322 322.29 258.94C322.133 258.22 321.762 257.643 321.233 257.195Z" fill="#F3D5C5"/>
<path d="M321.909 257.116C317.896 254.229 312.028 255.612 308.325 258.39C305.626 260.415 302.211 266.94 307.009 268.584C312.665 270.525 328.383 264.591 321.909 257.116C321.644 256.81 320.167 256.821 320.559 257.273C325.499 262.976 315.335 267.884 311.08 268.43C306.476 269.02 305.249 265.953 307.072 262.149C309.124 257.863 316.095 254.062 320.561 257.273C320.887 257.508 322.339 257.426 321.909 257.116Z" fill="#CE9282"/>
<path d="M287.134 164.854C284.924 164.854 279.398 166.177 277.853 164.192C274.978 160.665 280.947 156.696 283.376 155.593C291.774 151.623 298.846 154.27 298.404 164.192L287.134 164.854Z" fill="#F3D5C5"/>
<path d="M286.826 164.502C284.882 164.58 282.966 164.895 281.021 164.934C275.835 165.037 278.245 160.219 280.249 158.342C284.002 154.831 291.79 152.071 295.74 156.463C296.365 157.158 298.635 163.808 297.872 163.853C296.844 163.914 295.818 163.973 294.792 164.033C292.082 164.192 289.373 164.352 286.662 164.511C285.883 164.557 287.227 165.22 287.604 165.197C291.36 164.977 295.117 164.756 298.874 164.536C298.939 164.533 299.143 164.485 299.145 164.381C299.309 154.225 291.15 151.551 282.773 155.28C280.375 156.348 274.538 160.115 276.713 163.468C278.961 166.935 284.052 165.343 287.442 165.205C288.434 165.165 287.298 164.484 286.826 164.502Z" fill="#CE9282"/>
<path d="M301.745 164.626C301.529 164.108 301.209 163.629 300.768 163.211C298.008 160.598 292.184 161.757 288.993 162.823C284.638 164.276 278.01 166.672 274.979 170.365C272.989 172.792 270.56 176.761 272.548 179.847C274.756 183.376 278.294 180.949 280.946 179.407C286.25 176.761 292.215 176.099 297.521 173.674C300.398 172.444 303.062 167.804 301.745 164.626Z" fill="#F3D5C5"/>
<path d="M302.42 164.691C299.6 159.491 291.979 161.264 287.517 162.769C281.636 164.753 270.892 168.889 271.096 176.738C271.158 179.175 272.428 181.392 274.934 181.946C278.058 182.635 281.357 179.766 284.013 178.672C290.02 176.198 305.474 175.037 302.47 164.786C302.342 164.349 300.904 164.073 301.02 164.467C303.028 171.317 295.719 174.036 290.607 175.546C287.568 176.444 284.541 177.263 281.605 178.472C278.916 179.582 273.885 183.637 272.574 178.069C271.912 175.265 274.621 171.82 276.306 169.957C278.207 167.856 281.102 166.533 283.63 165.401C287.762 163.552 298.088 159.059 301.07 164.56C301.26 164.915 302.706 165.219 302.42 164.691Z" fill="#CE9282"/>
<path d="M300.395 181.612C301.72 178.746 303.267 173.454 299.951 171.47C295.532 168.603 288.681 173.454 285.145 175.659C282.051 177.422 270.78 184.701 278.074 186.904C282.051 188.008 289.124 185.582 292.879 184.701L300.395 181.612Z" fill="#F3D5C5"/>
<path d="M301.126 181.744C302.38 178.877 303.477 175.508 301.896 172.569C300.766 170.466 297.279 169.988 295.2 170.388C288.873 171.608 281.932 176.353 277.242 180.726C275.855 182.019 273.966 184.221 275.55 186.024C276.988 187.662 280.243 187.621 282.16 187.418C288.812 186.715 294.808 184.374 300.919 181.863C301.668 181.556 300.233 181.207 299.868 181.357C297.363 182.386 294.857 183.416 292.353 184.444C289.674 185.544 286.38 186.047 283.552 186.565C279.596 187.291 274.374 186.235 277.732 182.017C280.168 178.958 283.922 177.046 287.169 174.983C290.345 172.966 296.879 168.463 300.411 172.625C302.321 174.876 300.656 179.209 299.663 181.476C299.466 181.933 300.962 182.12 301.126 181.744Z" fill="#CE9282"/>
<path d="M301.141 182.985C301.13 182.953 301.117 182.92 301.106 182.888C299.006 177.315 290.663 180.165 287.076 182.312C285.363 183.339 282.065 185.543 281.388 187.566C279.82 192.259 288.513 192.192 290.99 192.01C295.499 191.68 303.394 189.201 301.141 182.985Z" fill="#F3D5C5"/>
<path d="M301.88 182.895C298.267 173.128 276.824 184.913 281.142 190.355C283.341 193.127 289.579 192.546 292.638 192.137C297.44 191.493 303.598 188.779 301.909 182.976C301.769 182.496 300.281 182.662 300.377 182.992C302.843 191.46 289.492 192.974 283.917 190.988C278.446 189.039 285.568 183.799 287.74 182.458C291.243 180.295 298.498 177.922 300.406 183.073C300.547 183.458 302.051 183.359 301.88 182.895Z" fill="#CE9282"/>
</g>
<defs>
<clipPath id="clip0_705_2310">
<rect width="456.496" height="397.5" fill="white"/>
</clipPath>
</defs>
</svg>
