<svg width="62" height="62" viewBox="0 0 62 62" fill="none" xmlns="http://www.w3.org/2000/svg">
<rect width="62" height="62" rx="14" fill="#ECFFFB"/>
<path d="M23.668 14H38.332C41.4176 14 43.8204 14.9181 45.4512 16.5488C47.0819 18.1796 48 20.5824 48 23.668V38.332C48 41.4176 47.0819 43.8204 45.4512 45.4512C43.8204 47.0819 41.4176 48 38.332 48H23.668C20.5824 48 18.1796 47.0819 16.5488 45.4512C14.9181 43.8204 14 41.4176 14 38.332V23.668L14.0107 23.0967C14.1176 20.2845 15.0201 18.0776 16.5488 16.5488C18.0776 15.0201 20.2845 14.1176 23.0967 14.0107L23.668 14ZM27.7949 33.8604C27.0796 33.169 25.9452 33.1605 25.2393 33.8662L22.582 36.5225L22.5449 36.4854C21.8742 35.8371 20.8349 35.789 20.126 36.3672L19.9951 36.4854C19.2689 37.1873 19.2673 38.3481 19.9893 39.0527V39.0537L21.3018 40.3662V40.3652C21.6554 40.7365 22.1399 40.8973 22.582 40.8975C23.0399 40.8975 23.5021 40.7273 23.8633 40.3662L27.8008 36.4287C28.5035 35.7259 28.5035 34.569 27.8008 33.8662L27.7949 33.8604ZM31.543 35.96C30.5493 35.96 29.7305 36.7788 29.7305 37.7725C29.7305 38.7661 30.5493 39.585 31.543 39.585H40.7305C41.7457 39.5847 42.543 38.7616 42.543 37.7725C42.5429 36.7833 41.7457 35.9602 40.7305 35.96H31.543ZM27.7949 21.6104C27.0796 20.919 25.9452 20.9105 25.2393 21.6162L22.582 24.2725L22.5449 24.2354C21.8742 23.5871 20.8349 23.539 20.126 24.1172L19.9951 24.2354C19.2689 24.9373 19.2673 26.0981 19.9893 26.8027V26.8037L21.3018 28.1162V28.1152C21.6554 28.4865 22.1399 28.6473 22.582 28.6475C23.0399 28.6475 23.5021 28.4773 23.8633 28.1162L27.8008 24.1787C28.5035 23.4759 28.5035 22.319 27.8008 21.6162L27.7949 21.6104ZM31.543 23.71C30.5493 23.71 29.7305 24.5288 29.7305 25.5225C29.7305 26.5161 30.5493 27.335 31.543 27.335H40.7305C41.7457 27.3347 42.543 26.5116 42.543 25.5225C42.5429 24.5333 41.7457 23.7102 40.7305 23.71H31.543Z" fill="#00C6CF" stroke="#00C6CF"/>
</svg>
