<svg width="62" height="62" viewBox="0 0 62 62" fill="none" xmlns="http://www.w3.org/2000/svg">
<rect width="62" height="62" rx="14" fill="#ECFFFB"/>
<path d="M42.9 27.8425C45.9639 27.8425 48.4529 30.3455 48.4371 33.4294V33.4324C48.4371 34.6764 48.2524 35.8137 47.902 36.8816L47.9 36.8875C47.0783 39.5035 45.3873 41.6082 43.5631 43.1746C41.738 44.7417 39.8085 45.7454 38.5592 46.1707C38.443 46.2094 38.2555 46.2371 38.0436 46.2371C37.8316 46.237 37.6441 46.2094 37.528 46.1707C36.2793 45.7456 34.3503 44.738 32.525 43.1687C30.7005 41.5999 29.0088 39.4949 28.1871 36.8875L28.1862 36.8865L28.067 36.4851C27.8038 35.5389 27.65 34.5176 27.65 33.4324C27.6501 30.3459 30.1414 27.8427 33.2047 27.8425C35.0171 27.8425 36.6401 28.7245 37.653 30.075L38.0524 30.6082L38.4528 30.075C39.4656 28.7246 41.0877 27.8425 42.9 27.8425Z" fill="#00C6CF" stroke="#00C6CF"/>
<path d="M46.3125 24.595C46.3125 24.9975 45.91 25.26 45.525 25.155C43.1625 24.5425 40.5725 25.05 38.6125 26.45C38.2275 26.73 37.7025 26.73 37.335 26.45C35.9525 25.435 34.2725 24.875 32.505 24.875C27.99 24.875 24.315 28.5675 24.315 33.1175C24.315 38.0525 26.6775 41.745 29.0575 44.2125C29.18 44.335 29.075 44.545 28.9175 44.475C24.14 42.8475 13.5 36.0925 13.5 24.595C13.5 19.52 17.5775 15.425 22.6175 15.425C25.61 15.425 28.2525 16.86 29.915 19.0825C31.595 16.86 34.2375 15.425 37.2125 15.425C42.235 15.425 46.3125 19.52 46.3125 24.595Z" fill="#00C6CF"/>
</svg>
