<svg width="62" height="62" viewBox="0 0 62 62" fill="none" xmlns="http://www.w3.org/2000/svg">
<rect width="62" height="62" rx="14" fill="#ECFFFB"/>
<path d="M17 12.25H27.5C30.1289 12.25 32.25 14.3711 32.25 17V24.3906C28.031 24.6406 24.6406 28.031 24.3906 32.25H17C14.3711 32.25 12.25 30.1289 12.25 27.5V17C12.25 14.3711 14.3711 12.25 17 12.25ZM22.25 20.7529C18.6489 20.7529 15.7129 23.6889 15.7129 27.29C15.7129 28.8086 16.9512 30.0477 18.4697 30.0479H22.5303C23.5237 30.0477 24.3426 29.2287 24.3428 28.2354C24.3428 27.2418 23.5238 26.423 22.5303 26.4229H19.4707C19.8462 25.2354 20.9535 24.3779 22.25 24.3779C22.9219 24.3779 23.5471 24.5997 24.0723 25.0195C24.8494 25.6489 25.9886 25.5248 26.6152 24.7295L26.6143 24.7285C27.239 23.9531 27.1166 22.8208 26.3457 22.1943L26.3428 22.1924C25.1864 21.2636 23.7285 20.7529 22.25 20.7529ZM21.4473 17.0244C19.893 15.962 17.8263 15.98 16.3066 17.0654C15.487 17.6459 15.296 18.7798 15.874 19.5986V19.5977C16.2215 20.0932 16.8007 20.3524 17.3496 20.3525C17.701 20.3525 18.0658 20.2582 18.3867 20.0361L18.4004 20.0264C18.6597 19.8345 19.007 19.8097 19.29 19.9473L19.4072 20.0166L19.415 20.0215C20.2379 20.5781 21.3709 20.3621 21.9287 19.5381C22.4852 18.7155 22.2697 17.5824 21.4463 17.0244H21.4473ZM28.4473 17.0244C26.893 15.962 24.8263 15.98 23.3066 17.0654C22.487 17.6459 22.296 18.7798 22.874 19.5986V19.5977C23.2215 20.0932 23.8007 20.3524 24.3496 20.3525C24.701 20.3525 25.0658 20.2582 25.3867 20.0361L25.4004 20.0264C25.6597 19.8345 26.007 19.8097 26.29 19.9473L26.4072 20.0166L26.415 20.0215C27.2379 20.5781 28.3709 20.3621 28.9287 19.5381C29.4852 18.7155 29.2697 17.5824 28.4463 17.0244H28.4473Z" fill="#00C6CF" stroke="#00C6CF"/>
<path d="M34.6047 39.48H41.3948C41.4638 39.48 41.4943 39.5022 41.509 39.519C41.5338 39.5474 41.5498 39.5837 41.5442 39.6499C41.3412 41.4769 39.8236 42.8373 38.0002 42.8374C36.1763 42.8374 34.6545 41.458 34.4543 39.6431L34.4524 39.6206L34.4475 39.5991C34.4495 39.6091 34.446 39.6052 34.4524 39.5854C34.4589 39.5654 34.4726 39.5406 34.4915 39.519C34.5062 39.5023 34.5362 39.48 34.6047 39.48Z" fill="#00C6CF" stroke="#00C6CF"/>
<path d="M32.75 28H43.25C45.8614 28 48 30.1386 48 32.75V43.25C48 45.8614 45.8614 48 43.25 48H32.75C30.1386 48 28 45.8614 28 43.25V32.75C28 30.1386 30.1386 28 32.75 28ZM34.2197 36.5029C32.7013 36.5031 31.463 37.7413 31.4629 39.2598C31.4629 42.8609 34.3989 45.7979 38 45.7979C41.6011 45.7979 44.5371 42.8609 44.5371 39.2598C44.537 37.7413 43.2987 36.5031 41.7803 36.5029H34.2197ZM34.1572 32.3232C33.3397 31.7471 32.2089 31.9367 31.6279 32.7529C31.0376 33.5646 31.2469 34.6963 32.0518 35.2881L32.0557 35.291C32.8268 35.8446 33.7348 36.1201 34.6572 36.1201C35.5482 36.1201 36.4318 35.843 37.1924 35.3359L37.1914 35.335C38.044 34.7727 38.2283 33.6389 37.6816 32.8252H37.6826C37.1609 32.0315 36.1249 31.7873 35.3154 32.2412L35.168 32.334C34.8641 32.5366 34.4578 32.5348 34.1572 32.3232ZM41.1572 32.3057C40.3378 31.7282 39.2038 31.9202 38.624 32.7412C38.0455 33.5608 38.238 34.6964 39.0596 35.2764V35.2754C39.83 35.8274 40.7361 36.1025 41.6572 36.1025C42.5482 36.1025 43.4318 35.8254 44.1924 35.3184L44.1953 35.3164C45.0216 34.7573 45.232 33.6437 44.6826 32.8076C44.1609 32.014 43.1249 31.7698 42.3154 32.2236L42.168 32.3164C41.8641 32.519 41.4578 32.5172 41.1572 32.3057Z" fill="#00C6CF" stroke="#00C6CF"/>
</svg>
