<svg width="62" height="62" viewBox="0 0 62 62" fill="none" xmlns="http://www.w3.org/2000/svg">
<rect width="62" height="62" rx="14" fill="#ECFFFB"/>
<path d="M25.75 14C30.0589 14 33.5625 17.5036 33.5625 21.8125C33.545 26.0418 30.2397 29.4592 26.0303 29.6074H25.9473C25.8147 29.5915 25.6703 29.5918 25.5332 29.6055C21.2258 29.4453 17.9375 26.0292 17.9375 21.8125C17.9375 17.5036 21.4411 14 25.75 14Z" fill="#00C6CF" stroke="#00C6CF"/>
<path d="M25.7718 32.8212C28.9112 32.8212 32.0204 33.6172 34.3626 35.1786C36.4636 36.5793 37.5537 38.4342 37.5696 40.3837C37.5682 42.3443 36.465 44.1977 34.3616 45.6171C32.0108 47.1955 28.8931 47.9999 25.7503 47.9999C22.6074 47.9999 19.4899 47.1955 17.139 45.6171L17.137 45.6161C15.0333 44.2135 13.93 42.3591 13.93 40.415C13.93 38.4708 15.0327 36.5984 17.1526 35.1786L17.1536 35.1796C19.514 33.6172 22.6325 32.8212 25.7718 32.8212Z" fill="#00C6CF" stroke="#00C6CF"/>
<path d="M38.2355 17.6194C41.2921 17.3543 44.0339 19.5541 44.4513 22.5911L44.4845 22.888C44.7409 26.0087 42.5296 28.7351 39.4718 29.1175H39.4171C39.3524 29.1175 39.2035 29.1151 39.046 29.1546C37.6967 29.214 36.4541 28.8448 35.4552 28.1556C37.1031 26.4569 38.0209 24.0764 37.8156 21.5101V21.5071L37.7863 21.2259C37.644 20.0391 37.2585 18.9396 36.6984 17.9642C37.1777 17.786 37.701 17.668 38.2365 17.6204L38.2355 17.6194Z" fill="#00C6CF" stroke="#00C6CF"/>
<path d="M36.1241 32.5325C39.5468 32.001 43.4171 32.8202 45.8936 34.8187L45.8946 34.8196C47.4118 36.0401 48.1221 37.5166 47.9845 38.9857V38.9915C47.8616 40.4811 46.9095 41.8207 45.1974 42.7591H45.1964C43.8438 43.503 42.188 43.9332 40.4747 44.0394C41.3087 43.0036 41.8104 41.8103 41.9278 40.5491L41.9288 40.5423C42.12 38.1696 40.9825 35.9374 38.8214 34.1976L38.8175 34.1956L38.3517 33.8431C37.6603 33.3446 36.9128 32.9098 36.1241 32.5325Z" fill="#00C6CF" stroke="#00C6CF"/>
</svg>
